<svg xmlns="http://www.w3.org/2000/svg" viewBox="0 0 710 394"><defs><style>.cls-1{fill:#66b155;}.cls-2{fill:#4f9850;}</style></defs><title>Arrosoir</title><g id="Calque_2" data-name="Calque 2"><g id="Pig_arrosoir"><g id="Arrosoir"><path class="cls-1" d="M142.688,109.718H399.52633s27.44,0,26.3424,29.62386c-1.38182,37.29468,3.2928,122.88417,3.2928,122.88417L564.1663,153.60521l41.7088,49.3731L440.182,385.38066a25.97,25.97,0,0,1-19.223,8.507H129.51678s-21.952,4.38872-21.952-41.69284,10.976-224.92192,10.976-224.92192S117.44318,109.718,142.688,109.718Z"/><path class="cls-2" d="M249.092,109.718S232.69116,39.49848,140.49278,39.49848,37.31839,147.02213,37.31839,147.02213s-5.23451,82.6064,72.56833,137.30646l-2.32194,45.92261S0,266.61476,0,162.38265,68.05119,0,142.688,0,288.88985,61.44208,288.88985,109.718Z"/><path class="cls-2" d="M562.75056,154.74428,586.1183,69.12235s10.976-23.04079,49.392,0,60.368,55.95618,69.14879,76.8026,6.5856,39.49848-5.488,44.98438-95.49118,13.16616-95.49118,13.16616l-40.92934-48.92318"/><path class="cls-1" d="M590.72307,63.72618a21.97352,21.97352,0,0,1,10.6523-4.52881l-.00376-.00483s-9.82587.81191-13.906,7.84956A19.55148,19.55148,0,0,1,590.72307,63.72618Z"/><path class="cls-1" d="M704.65908,145.925c-8.7808-20.84642-30.7328-53.76182-69.14879-76.8026-15.47358-9.2805-26.48924-11.08-34.13492-9.925a21.97352,21.97352,0,0,0-10.6523,4.52881,19.55148,19.55148,0,0,0-3.25742,3.31592c-2.72364,4.697-2.20654,23.85649,4.14065,36.09283,15.3664,29.62386,45.6942,62.2535,64.75839,75.70542,18.65919,13.16616,38.416,13.16616,42.80639,12.069C711.24468,185.42343,713.43988,166.77137,704.65908,145.925Z"/><circle cx="620.14389" cy="82.28851" r="5.488"/><circle cx="694.78068" cy="168.96573" r="5.488"/><circle cx="649.23029" cy="96.00326" r="6.0368"/><circle cx="626.18069" cy="110.2666" r="6.0368"/><circle cx="644.29109" cy="134.95315" r="6.5856"/><circle cx="683.80468" cy="139.34187" r="5.488"/><circle cx="666.24309" cy="160.18829" r="5.488"/><circle cx="668.43828" cy="115.20391" r="5.488"/></g></g></g></svg>