<svg xmlns="http://www.w3.org/2000/svg" viewBox="0 0 647 363"><defs><style>.cls-1{fill:#fff3d2;}.cls-2{fill:#593526;}.cls-3{fill:#89543a;}</style></defs><title>Book</title><g id="Calque_2" data-name="Calque 2"><g id="Pig_book"><g id="Book"><path class="cls-1" d="M297.99284,96.80746c7.17881,2.783,23.82023,7.15254,47.99738,1.12184a121.4415,121.4415,0,0,0,12.9993-4.03474L619.9753,23.05042s1.07379-.33181,2.78085-.68784l-.00012-.00027c-6.21877-19.21658-11.78024-23.2899-37.77882-22.2S494.98211,14.33114,428.9857,37.21925,322.99148,94.98447,322.99148,94.98447s-28.99842-22.88811-74.99592-45.77621S66.00548,2.34214,48.00646,2.34214,25.5902,23.84284,25.5902,23.84284l.002.00053c46.963,11.97491,268.40091,71.1411,268.40091,71.1411A30.52989,30.52989,0,0,0,297.99284,96.80746Z"/><path class="cls-2" d="M297.99284,96.80746V359.63565c28.10565,8.05964,46.99744-.893,46.99744-.893l.99994-.28924V97.9293C321.81307,103.96,305.17165,99.59051,297.99284,96.80746Z"/><path class="cls-3" d="M297.99284,96.80746a30.52989,30.52989,0,0,1-3.99978-1.823S72.55517,35.81828,25.59215,23.84337c-3.62871-.92519-6.22134-1.5702-7.58406-1.88286C-.99088,17.60087.00907,35.03943.00907,35.03943L3.00891,254.11131C4.00885,280.26914,19.008,281.35905,19.008,281.35905l269.9853,75.20378c3.09114,1.22508,6.09439,2.23969,8.99951,3.07282V96.80746Z"/><path class="cls-3" d="M622.75615,22.36258c-1.70706.356-2.78085.68784-2.78085.68784L358.98952,93.89456a121.4415,121.4415,0,0,1-12.9993,4.03474V358.45341L624.975,279.17923c16.99907-3.26973,14.99918-20.70829,14.99918-20.70829l6.99962-220.16178C647.77872,19.00743,629.80191,20.893,622.75615,22.36258Z"/></g></g></g></svg>