<svg xmlns="http://www.w3.org/2000/svg" viewBox="0 0 560 298"><defs><style>.cls-1{fill:#595754;}.cls-2{fill:#373330;}.cls-3{fill:#f5c13d;}.cls-4{fill:#6db571;}.cls-5{fill:#489bbc;}.cls-6{fill:#ef806e;}</style></defs><title>Controller</title><g id="Calque_2" data-name="Calque 2"><g id="Pig_controller"><g id="Controller"><path class="cls-1" d="M263.51655,206.75439l17.39854-.33687s70.40406-4.1557,87.93288,13.3839C390.49778,241.46454,423.76457,298,475.51291,298S560,249.39007,560,159.56738,505.08339,1.05674,446.99852,1.05674,363.56752,33.8156,275.91217,33.8156,178.752,0,130.172,0,.27306,35.92908.27306,124.695-8.17565,296.94326,68.91881,296.94326,154.99,243.578,176.63985,221.91489C194.91738,203.62613,263.51655,206.75439,263.51655,206.75439Z"/><path class="cls-2" d="M114.33062,56.00709s20.06568-1.05674,20.06568,22.19149-1.05608,27.47518,21.12178,27.47518,31.68265,2.11347,31.68265,20.078-8.44871,21.13475-31.68265,21.13475-22.17786,9.51064-22.17786,22.19149,2.11217,29.58866-16.89742,29.58866-23.234-3.17022-23.234-30.64539c0-19.02128-2.11218-21.13476-24.29-21.13476s-28.51439-7.39716-28.51439-21.13475S46.741,106.7305,69.9749,106.7305c16.89742,0,23.23395,2.11347,23.23395-23.24823S103.76974,56.00709,114.33062,56.00709Z"/><ellipse class="cls-3" cx="441.71808" cy="83.48227" rx="25.34613" ry="25.3617"/><ellipse class="cls-4" cx="441.71808" cy="170.13475" rx="25.34613" ry="25.3617"/><ellipse class="cls-5" cx="391.02583" cy="126.80851" rx="25.34613" ry="25.3617"/><ellipse class="cls-6" cx="492.41033" cy="126.80851" rx="25.34613" ry="25.3617"/></g></g></g></svg>