<svg xmlns="http://www.w3.org/2000/svg" viewBox="0 0 874 538"><defs><style>.cls-1{fill:#643e2a;}.cls-2{fill:#8a563c;}.cls-3,.cls-4{fill:#ffe18e;}.cls-4{opacity:0.36;}</style></defs><title>Flashlight</title><g id="Calque_2" data-name="Calque 2"><g id="Pig_flashlight"><g id="Flashlight"><g id="Light"><path class="cls-1" d="M25.2003,450.26773s-39.281,17.505-19.75835,61.39351,59.1039,19.67618,59.1039,19.67618l137.94035-61.471-36.605-82.291Z"/><path class="cls-2" d="M159.4866,390.4251l24.44478-30.41035,24.44477-30.41036a21.4816,21.4816,0,0,1,7.99844-6.1631l23.66322-10.54515,23.66345-10.54526,32.53779,73.14753,32.53778,73.14753L306.51176,458.568l-22.26508,9.92209a21.46281,21.46281,0,0,1-8.13817,1.85027l-39.83438,1.11026L196.44,472.56083l-.29793-.43307a248.92938,248.92938,0,0,1-36.54551-81.25863Z"/><ellipse class="cls-1" cx="297.15256" cy="375.09132" rx="34.00389" ry="80.05791" transform="translate(-126.76524 153.08491) rotate(-23.97212)"/><ellipse class="cls-3" cx="297.15256" cy="375.09132" rx="18.00206" ry="57.04126" transform="translate(-126.78168 153.11631) rotate(-23.97637)"/></g><polygon id="light_ray" class="cls-4" points="273.969 322.974 743.035 0 874 294.419 320.336 427.209 273.969 322.974"/></g></g></g></svg>