<svg xmlns="http://www.w3.org/2000/svg" viewBox="0 0 964 294"><defs><style>.cls-1{fill:#d5d5d5;}.cls-2{fill:none;}.cls-3{fill:#f7f6f6;}</style></defs><title>Lawyer</title><g id="Calque_2" data-name="Calque 2"><g id="Pig_lawyer"><g id="Lawyer"><path id="shoulder_left" class="cls-1" d="M137.38334,125.33111c44.52906,22.55024,81.684,28.80545,103.46733,30.30593,11.772.81088,22.48976-5.6161,25.18093-15.15608l4.3444-15.4005c2.62233-9.29592-3.15843-18.80218-13.72183-22.59422-13.8115-4.958-35.58738-13.55589-65.97516-27.761-34.511-16.13253-45.22022-40.70257-48.25163-57.85966C140.5304,6.12911,128.54586-1.31857,115.59114.19539L103.46055,1.613c-11.65791,1.36241-20.39377,9.59359-20.457,19.35836C82.82693,48.22051,89.1671,100.91363,137.38334,125.33111Z"/><path id="shoulder_right" class="cls-1" d="M784.62091,125.33111c-44.529,22.55024-81.68395,28.80545-103.46733,30.30593-11.772.81088-22.48976-5.6161-25.18093-15.15608l-4.34439-15.4005c-2.62233-9.29592,3.15842-18.80218,13.72182-22.59422,13.8115-4.958,35.58739-13.55589,65.97516-27.761,34.511-16.13253,45.22023-40.70257,48.25163-57.85966,1.897-10.73648,13.88152-18.18416,26.83624-16.6702L818.5437,1.613c11.65791,1.36241,20.39377,9.59359,20.45705,19.35836C839.17732,48.22051,832.83715,100.91363,784.62091,125.33111Z"/><polygon class="cls-2" points="693.482 294 694.027 294 634 97.086 693.482 294"/><path d="M330,97.086H129.80762q-1.47949,0-2.95508.03368C77.10571,98.26123,33.7019,131.2766,17.9873,178.46938l-11.87744,35.67A119.28224,119.28224,0,0,0,0,251.82554V294H269.97241Z"/><path d="M964,251.82554a119.28224,119.28224,0,0,0-6.10986-37.68618l-11.87744-35.67C930.29785,131.2766,886.894,98.26123,837.14746,97.11964q-1.4751-.03368-2.95508-.03368H634L694.02734,294H964Z"/><polygon class="cls-3" points="569.781 294 530.27 97.086 505.259 97.086 527.287 294 569.781 294"/><polygon class="cls-3" points="376.456 294 417.482 97.086 388.503 97.086 333.666 294 376.456 294"/><polygon class="cls-3" points="308.958 294 365.367 97.086 330 97.086 269.972 294 308.958 294"/><polygon class="cls-3" points="469.129 294 503.375 294 486.252 129.982 469.129 294"/><polygon class="cls-3" points="445.216 294 467.245 97.086 440.234 97.086 400.723 294 445.216 294"/><polygon class="cls-3" points="633.838 294 579 97.086 553.021 97.086 594.048 294 633.838 294"/><polygon class="cls-3" points="602.137 97.086 658.544 294 693.482 294 634 97.086 602.137 97.086"/><polygon class="cls-1" points="333.666 294 388.503 97.086 365.367 97.086 308.958 294 333.666 294"/><polygon class="cls-1" points="400.723 294 440.234 97.086 417.482 97.086 376.456 294 400.723 294"/><polygon class="cls-1" points="594.048 294 553.021 97.086 530.27 97.086 569.781 294 594.048 294"/><polygon class="cls-1" points="469.129 294 486.252 129.982 503.375 294 527.287 294 505.259 97.086 489.686 97.086 482.817 97.086 467.245 97.086 445.216 294 469.129 294"/><polygon class="cls-1" points="658.544 294 602.137 97.086 579 97.086 633.838 294 658.544 294"/></g></g></g></svg>