<svg xmlns="http://www.w3.org/2000/svg" viewBox="0 0 550 345"><defs><style>.cls-1{fill:none;}.cls-2{fill:#fff4d5;}.cls-3{fill:#67a452;}.cls-4{fill:#74b458;}.cls-5{fill:#77c3ed;}.cls-6{fill:#ce4c3c;}</style></defs><title>Map</title><g id="Calque_2" data-name="Calque 2"><g id="Pig_map"><g id="Map"><line class="cls-1" x1="437.37527" y1="60.3418" x2="441.8623" y2="316.91615"/><path class="cls-2" d="M546.43609,293.1428,444.68088,337.04638a5.91794,5.91794,0,0,1-3.97579.25467L323.5176,303.68712a5.91841,5.91841,0,0,0-3.16806-.02648L167.3272,344.79711a5.91825,5.91825,0,0,1-3.27358-.05782L4.17084,295.64161A5.89857,5.89857,0,0,1,.0001,289.97022L1.67573,5.86668A5.90623,5.90623,0,0,1,9.35194.27442L165.78721,49.25751a5.91832,5.91832,0,0,0,3.29537.07L323.09029,8.19515a5.91823,5.91823,0,0,1,3.17028.0323L435.59493,39.82906a5.91815,5.91815,0,0,0,3.74489-.15306l101.435-38.53928a5.90682,5.90682,0,0,1,8.00966,5.48616l1.21549,281.08118a5.89694,5.89694,0,0,1-3.56385,5.43873Z"/><path class="cls-3" d="M210.65994,179.79582s60.095-15.61848,95.82464,30.51071c6.90054,8.909,12.017,15.75312,15.87609,21.13807l1.19555-202.707-149.30677,39.877a25.96628,25.96628,0,0,1-6.84583.87707c-.0318-.00018-.06339-.00378-.09519-.00409l-.65437,110.94921C188.33993,186.807,210.65994,179.79582,210.65994,179.79582Z"/><path class="cls-3" d="M209.45976,213.729c-16.34031,4.39625-30.5166,4.06686-43.00617.69722L165.805,324.38937l.24518.07529,147.20532-39.573L294.25481,249.166S267.55471,198.09872,209.45976,213.729Z"/><path class="cls-4" d="M95.788,157.159c-19.88111-22.49179-59.75866-22.07216-74.87966-21.00978L20.062,279.6334l145.743,44.756.64856-109.96319C134.53886,205.81561,113.638,177.35312,95.788,157.159Z"/><path class="cls-4" d="M133.82378,151.39326c7.65479,17.00158,20.134,25.314,32.83028,29.04358l.65437-110.94921a25.93664,25.93664,0,0,1-7.50756-1.1807L21.56371,25.022,21.139,97.02449C34.79662,98.56512,114.87979,109.318,133.82378,151.39326Z"/><path class="cls-3" d="M528.87156,27.021,446.45688,58.3339a25.83572,25.83572,0,0,1-8.82521,1.66992l4.03438,256.59337,88.29322-38.0949Z"/><path class="cls-4" d="M437.08562,60.02571a25.93566,25.93566,0,0,1-7.05341-1.02022L324.46835,28.49406l-.91213.24358-1.19555,202.707c16.12242,22.49771,10.20352,19.42041,19.80057,33.975,1.85375,2.81139,18.452,25.78226,20.598,28.75122l78.61832,22.55094.28847-.12455L437.63167,60.00382C437.44909,60.00665,437.2686,60.02679,437.08562,60.02571Z"/><path class="cls-5" d="M322.03855,283.49381l.01513.00058.307-52.04979c-3.85905-5.385-8.97555-12.22908-15.87609-21.13807-35.72966-46.12919-95.82464-30.51071-95.82464-30.51071s-22.32,7.0112-44.00588.641l-.20047,33.98934c12.48957,3.36964,26.66586,3.699,43.00617-.69722,58.095-15.63024,84.79505,35.43706,84.79505,35.43706l19.00072,35.72561,1.88926-.50787A25.96068,25.96068,0,0,1,322.03855,283.49381Z"/><path class="cls-5" d="M95.788,157.159c17.85,20.19408,38.75091,48.65657,70.66564,57.26714l.20047-33.98934c-12.69633-3.7296-25.17549-12.042-32.83028-29.04358C114.87979,109.318,34.79662,98.56512,21.139,97.02449l-.23075,39.12477C36.02929,135.08688,75.90684,134.66725,95.788,157.159Z"/><path class="cls-5" d="M322.36067,231.4446l-.307,52.04979a25.94408,25.94408,0,0,1,6.98758,1.00472l33.718,9.67169c-2.146-2.969-18.74427-25.93983-20.598-28.75122C332.56419,250.865,338.48309,253.94231,322.36067,231.4446Z"/><path class="cls-6" d="M414.22778,85.16172c-20.00026-.11761-57.089,14.63791-57.28334,47.57873s19.09109,69.49,58.35905,109.15144C458.05426,199.718,470.84,151.37852,470.95182,132.4126S445.22819,85.344,414.22778,85.16172Zm-.90623,68.8733a19.4654,19.4654,0,1,1,19.61506-19.35036A19.48261,19.48261,0,0,1,413.32155,154.035Z"/></g></g></g></svg>