<svg xmlns="http://www.w3.org/2000/svg" viewBox="0 0 374 225"><defs><style>.cls-1{fill:#f8ae38;}.cls-2{fill:#ec992f;}</style></defs><title>Party_Serpentin</title><g id="Calque_2" data-name="Calque 2"><g id="Pig_party_serpentin"><g id="Party_Serpentin"><path class="cls-1" d="M102.05267,165.78434S220.35216,183.57781,245.4835,185.3334s82.7141-5.19094,87.68054-76.14292-58.86669-68.82971-61.052-68.98237-55.80243-2.80126-58.9351,41.95307,34.09441,46.258,51.22551,21.12894,43.85949.87006,39.5118,15.923-24.68039,38.86145-52.14988,39.13634-75.0884-9.633-78.43532-55.93692S195.19734,9.60627,241.85342,1.89644s86.09148,9.30477,102.27524,29.08272S384.24422,85.3361,369.268,142.426s-70.04506,75.18106-95.63484,79.97488-57.20072,1.48869-57.20072,1.48869-42.232-8.43471-56.43665-9.427-65.48362-5.67137-65.48362-5.67137L96.323,167.23521l5.72971-1.45087"/><path class="cls-2" d="M13.81511,153.79315l77.57936,5.41943a15.17982,15.17982,0,0,1,10.10273,5.79392c2.47634,3.2259,4.28728,8.23707,3.74288,16.01451-1.45173,20.73981-.10687,32.89973-15.40421,31.83111l-77.57936-5.41943S-1.00831,208.69987.06139,193.4179L2.20077,162.854S2.88844,153.02985,13.81511,153.79315Z"/></g></g></g></svg>