<svg xmlns="http://www.w3.org/2000/svg" viewBox="0 0 1183 332"><defs><style>.cls-1{fill:#e73238;}.cls-2{fill:#2686c8;}.cls-3{fill:#ffda3a;}</style></defs><title>Superman</title><g id="Calque_2" data-name="Calque 2"><g id="Pig_superman"><g id="Superman"><path class="cls-1" d="M172.49136,14.76933C161.41085,58.97865,115.69823,211.25523,0,269.97008c0,0,30.74664,36.01737,71.742,33.01592s82.92216-22.01061,133.23432-15.00724c27.87663,3.88029,43.44972,12.98088,51.79943,20.32719,13.401-95.39416,42.96276-157.18813,58.80692-184.76882C255.91319,97.18507,206.27262,60.68846,172.49136,14.76933Z"/><path class="cls-1" d="M978.08863,0c-38.8873,57.519-82.30088,99.14011-139.39,127.17268,42.32878,65.04211,58.04644,146.47691,63.57547,177.81429a32.77816,32.77816,0,0,1-.74291,16.09761c.07376.41035.11381.64093.11381.64093s9.44037-24.66815,62.89655-35.12241c53.45618-10.45475,99.59617,5.62674,143.71113,5.7987,44.115.171,74.74732-37.89035,74.74732-37.89035C1036.00271,196.249,980.37448,7.93449,978.08863,0Z"/><path class="cls-2" d="M382.27629,184.356a5.29865,5.29865,0,0,1,.34287-7.26424l23.87249-23.02527A552.03186,552.03186,0,0,1,322.09736,126.351q-3.27492-1.38934-6.51468-2.81386c-15.84416,27.58069-45.40588,89.37466-58.80692,184.76882Q255.29,318.88137,254.07718,329.999A19.87426,19.87426,0,0,0,253.387,332H508.93146Z"/><path class="cls-2" d="M902.2741,304.987c-5.529-31.33738-21.24669-112.77218-63.57547-177.81429q-5.33878,2.62113-10.84363,5.08155a399.64294,399.64294,0,0,1-71.84262,23.88164l21.72144,20.95591a5.299,5.299,0,0,1,.34239,7.26375L651.42152,332H894.39035a25.39141,25.39141,0,0,0,7.14084-10.91542A32.77816,32.77816,0,0,0,902.2741,304.987Z"/><path class="cls-1" d="M432.66122,159.3h.01661L455.275,137.3309a5.29944,5.29944,0,0,1,3.69253-1.49877h7.25807a5.29836,5.29836,0,0,1,3.67445,9.10937A139.84957,139.84957,0,0,0,453.80534,163.747q22.02549,3.66534,44.76409,5.94867a12.948,12.948,0,0,1,.31064-1.89789c2.98967-21.27979,34.89585-30.90846,73.12866-31.34715,35.06973-.39863,65.96828,10.32774,75.74273,34.84884,25.34266-1.62676,48.89181-4.20515,70.879-7.7767v-.8808a5.29756,5.29756,0,0,1,9.02373-3.76646l2.65706,2.62969q13.23082-2.42769,25.70117-5.36929L714.86414,116.437a5.29765,5.29765,0,0,0-3.67788-1.48509H449.18431a5.2973,5.2973,0,0,0-3.67739,1.4846l-39.01527,37.63q12.67622,3.09965,25.67381,5.71565ZM670.735,135.81405a19.011,19.011,0,0,1-5.35954,14.5153c-4.70455-6.67509-12.16239-12.94716-14.89759-14.5153Z"/><path class="cls-1" d="M655.75243,186.45274h57.58048a5.298,5.298,0,0,0,5.29751-5.29846V163.52273c-21.98715,3.57155-45.5363,6.14994-70.879,7.7767a44.53692,44.53692,0,0,1,2.75914,10.56271A5.29354,5.29354,0,0,0,655.75243,186.45274Z"/><path class="cls-1" d="M651.42152,332,778.07621,184.35553a5.299,5.299,0,0,0-.34239-7.26375l-21.72144-20.95591q-12.47474,2.945-25.70117,5.36929l17.6372,17.45422a5.299,5.299,0,0,1,.33848,7.16459L710.9821,230.76415a5.29784,5.29784,0,0,1-8.43079-.41182c-16.46935-23.77367-54.31581-35.62216-113.22238-34.32662-76.04605,3.84219-91.8404-14.20851-90.7595-26.33008q-22.712-2.28406-44.76409-5.94867a139.3405,139.3405,0,0,0-18.82994,37.03447,5.28822,5.28822,0,0,1-9.053,1.7l-13.80742-16.32135a5.2995,5.2995,0,0,1,.35118-7.22126l19.69934-19.1567q-12.99637-2.60941-25.67381-5.71565l-23.87249,23.02527a5.29865,5.29865,0,0,0-.34287,7.26424L508.93146,332m-30.80965-82.22326c85.39948,13.46109,159.53967,6.90861,181.01739,21.58072,4.71139,3.67268,3.77312,9.10547.33213,14.08688-.12162.17586-.25349.34782-.39172.5105-12.49745,14.71169-43.56646,13.27349-80.53374,12.61986a5.37256,5.37256,0,0,1-4.29281-2.32388c-14.31685-20.41707-52.34842-24.506-72.145-11.02925a5.27967,5.27967,0,0,1-6.99969-.96677l-13.7322-16.23391v.01759h0V268.038l-8.12893-9.61352A5.29527,5.29527,0,0,1,478.12181,249.77674Z"/><polygon class="cls-3" points="481.376 268.038 481.376 268.038 481.376 268.038 481.376 268.038"/><path class="cls-3" d="M481.37621,268.038v-.0171l13.7322,16.23391a5.27967,5.27967,0,0,0,6.99969.96677c19.79654-13.47671,57.82811-9.38782,72.145,11.02925a5.37256,5.37256,0,0,0,4.29281,2.32388c36.96728.65363,68.03629,2.09183,80.53374-12.61986.13823-.16268.2701-.33464.39172-.5105,3.441-4.98141,4.37926-10.4142-.33213-14.08688-21.47772-14.67211-95.61791-8.11963-181.01739-21.58072a5.29527,5.29527,0,0,0-4.87453,8.64773Z"/><path class="cls-3" d="M466.22562,135.83213h-7.25807a5.29944,5.29944,0,0,0-3.69253,1.49877L432.67783,159.3h-.01661l-.49576.48217q10.71859,2.15215,21.63988,3.9648a139.84957,139.84957,0,0,1,16.09473-18.80546A5.29836,5.29836,0,0,0,466.22562,135.83213Z"/><path class="cls-3" d="M412.46612,178.93886a5.2995,5.2995,0,0,0-.35118,7.22126l13.80742,16.32135a5.28822,5.28822,0,0,0,9.053-1.7A139.3405,139.3405,0,0,1,453.80534,163.747q-10.91566-1.81654-21.63988-3.9648Z"/><path class="cls-3" d="M665.37547,150.32935a19.011,19.011,0,0,0,5.35954-14.5153H650.47788C653.21308,137.38219,660.67092,143.65426,665.37547,150.32935Z"/><path class="cls-3" d="M718.63042,162.64193v.8808q5.91537-.96066,11.68079-2.01757l-2.65706-2.62969A5.29756,5.29756,0,0,0,718.63042,162.64193Z"/><path class="cls-3" d="M647.75146,171.29943c-9.77445-24.5211-40.673-35.24747-75.74273-34.84884-38.23281.43869-70.139,10.06736-73.12866,31.34715a12.948,12.948,0,0,0-.31064,1.89789c23.52228,2.36589,47.52859,3.62333,71.83334,3.72787C597.92627,173.54172,623.644,172.84705,647.75146,171.29943Z"/><path class="cls-3" d="M718.63042,181.15428a5.298,5.298,0,0,1-5.29751,5.29846H655.75243a5.29354,5.29354,0,0,1-5.24183-4.5906,44.53692,44.53692,0,0,0-2.75914-10.56271c-24.10742,1.54762-49.82519,2.24229-77.34869,2.12407-24.30475-.10454-48.31106-1.362-71.83334-3.72787-1.0809,12.12157,14.71345,30.17227,90.7595,26.33008,58.90657-1.29554,96.753,10.553,113.22238,34.32662a5.29784,5.29784,0,0,0,8.43079.41182L748.28689,186.124a5.299,5.299,0,0,0-.33848-7.16459l-17.6372-17.45422q-5.76517,1.0574-11.68079,2.01757Z"/></g></g></g></svg>