<svg xmlns="http://www.w3.org/2000/svg" viewBox="0 0 846 225"><defs><style>.cls-1{fill:#d63e3e;}</style></defs><title>Glasses_Square</title><g id="Calque_2" data-name="Calque 2"><g id="Pig_glasses_square"><path id="Glasses_Square" class="cls-1" d="M833,96H802.82373V0h-330V88.44543S454.80322,69.501,420.81348,69.501C392,69.501,377.55615,83.53735,373.82373,87.8139V0h-330V96H13S0,96,0,107c0,9,6,12,11,12H43.82373V225h330V110.53668c3.92773-4.0957,21.1665-20.36413,47.2085-20.36413,29.7915,0,51.7915,22.32745,51.7915,22.32745V225h330V119H835c5,0,11-3,11-12C846,96,833,96,833,96ZM351.67627,205H65.97144V20H351.67627Zm429,0H494.97119V20H780.67627Z"/></g></g></svg>