<svg xmlns="http://www.w3.org/2000/svg" viewBox="0 0 843 295"><defs><style>.cls-1{fill:#744534;}</style></defs><title>Glasses_Round</title><g id="Calque_2" data-name="Calque 2"><g id="Pig_glasses_round"><path id="Glasses_Round" class="cls-1" d="M829.61905,130.42105l-31.21732-.08592.006.14127C788.93063,57.0347,718.90985,0,633.92262,0,551.80476,0,483.66023,53.24889,470.60269,123.09527c.00436-.04454.00872-.089.01362-.13356a74.56347,74.56347,0,0,0-102.69293,0c.0049.04726.01034.09458.01524.14183C354.8849,53.253,286.73819,0,204.61706,0,119.61622,0,49.58673,57.05264,40.12761,130.511v-.09824H13.381S0,130.42105,0,141.807s13.381,11.386,13.381,11.386H39.16226C42.5222,232.01506,115.30618,295,204.61706,295c91.4523,0,165.58929-66.038,165.58929-147.5,0-1.35577-.024-2.70649-.06479-4.05348l.00217.01851c2.49478-2.61065,20.69975-21.01644,50.24119-20.28959a68.35874,68.35874,0,0,1,47.9789,21.557l.01035-.09906c-.02069.95409-.04084,1.90819-.04084,2.86664,0,81.462,74.137,147.5,165.58929,147.5,89.36588,0,162.18415-63.06214,165.46079-141.952l.00653.145h31.34419S843,153.193,843,141.807,829.61905,130.42105,829.61905,130.42105Zm-625.002,143.8772c-79.00947,0-143.28769-56.88131-143.28769-126.79825S125.60759,20.70175,204.61706,20.70175,347.90476,77.58306,347.90476,147.5,283.62653,274.29825,204.61706,274.29825Zm429.30556,0c-79.00947,0-143.2877-56.88131-143.2877-126.79825S554.91315,20.70175,633.92262,20.70175,777.21032,77.58306,777.21032,147.5,712.93209,274.29825,633.92262,274.29825Z"/></g></g></svg>