<svg xmlns="http://www.w3.org/2000/svg" viewBox="0 0 848 308"><defs><style>.cls-1{fill:#e26dc7;}</style></defs><title>Glasses_Heart</title><g id="Calque_2" data-name="Calque 2"><g id="Pig_glasses_heart"><path id="Glasses_Heart" class="cls-1" d="M834.82921,125.49223H799.82667C815.308,30.09592,739.20392-40.67862,641.599,26.451c-99.00962-61.56592-178.15933-.79184-172.132,86.4952a80.20222,80.20222,0,0,0-44.38536-14.45116c-29.60195-.48854-43.16955,11.80056-45.53234,14.2,6.99758-88.7256-66.59-150.33382-159.77488-86.244C116.08455-38.02533,34.1772,31.67794,49.07677,125.49223h-35.906S0,125.3987,0,136.94852s11.17163,11.54982,11.17163,11.54982h43.398C72.09112,203.43273,122.61114,263.26864,219.77436,308c93.97509-47.54986,141.03609-111.40423,155.37193-168.64221,4.42491-4.20418,22.86891-20.19738,47.41241-20.19738,24.9901,0,46.80867,17.36637,51.52253,21.38379C489.13015,197.59476,539.72386,261.09942,641.599,308c89.00206-45.03357,135.91371-104.6901,152.809-159.50166h42.42035S848,148.49834,848,136.94852,834.82921,125.49223,834.82921,125.49223ZM337.18355,179.1609c-23.65179,41.03355-64.28284,77.65-117.83773,106.29973-57.04074-27.69657-100.58806-63.16955-126.28441-102.96791-21.82-33.79505-30.07685-69.589-23.24912-100.78849,8.11381-37.07357,35.76247-60.1041,72.157-60.1041,21.07717,0,43.67032,7.4037,67.15275,22.00542l11.2092,6.97023,10.87488-7.48013c21.78147-14.98085,43.4253-22.89934,62.58921-22.89934,15.474,0,28.95183,4.94169,40.05952,14.68756,11.09353,9.73495,19.078,23.77945,23.09,40.61534C364.48714,107.15331,357.46907,143.968,337.18355,179.1609Zm421.82464,0c-23.65179,41.03355-64.28285,77.65-117.83773,106.29973-57.04074-27.69657-100.58807-63.16955-126.2849-102.96791-21.81955-33.79505-30.07637-69.589-23.24864-100.78849,8.11381-37.07357,35.76248-60.1041,72.157-60.1041,21.07669,0,43.67033,7.4037,67.15275,22.00542l11.20921,6.97023,10.87487-7.48013C674.81223,28.1148,696.45607,20.19631,715.62,20.19631c15.474,0,28.95183,4.94169,40.05951,14.68756,11.09354,9.73495,19.078,23.77945,23.09,40.61534C786.31129,107.15331,779.2937,143.968,759.00819,179.1609Z"/></g></g></svg>