<svg xmlns="http://www.w3.org/2000/svg" viewBox="0 0 845 263"><title>Sunglasses</title><g id="Calque_2" data-name="Calque 2"><g id="Pig_sunglasses"><path id="Sunglasses" d="M845,42.38494V25.20185s-1.15437-11.45538-26.55055-16.03754S674.153,0,649.9112,0,519.46721,4.58216,481.373,17.18308s-106.20218,5.7277-106.20218,5.7277S289.74727,0,190.47131,0,30.01366,2.29108,11.54372,11.45539c-5.77186,2.29108-9.235,3.43661-10.38935,8.01877A36.35419,36.35419,0,0,0,0,27.49293V54.98586s1.15437,14.892,12.69809,14.892,15.00683,8.01877,15.00683,14.892,2.30874,101.953,28.85929,131.737,61.18169,48.11263,117.7459,45.82155,152.37705-13.74646,161.612-75.60556,42.71175-111.11727,85.4235-111.11727,70.41667,71.02341,71.571,108.82619,69.26229,75.60557,136.21584,77.89664,109.6653,0,138.52459-27.49293,45.0205-74.46,46.17487-100.80742,0-41.23939,2.30874-50.4037,5.77186-10.30985,15.00683-11.45539C840.38251,66.44125,843.84563,77.89664,845,42.38494Z"/></g></g></svg>