<svg id="Kermesse" xmlns="http://www.w3.org/2000/svg" viewBox="0 0 738.12087 869.87369"><defs><style>.cls-1,.cls-10,.cls-4,.cls-8{fill:#603b1d;}.cls-1,.cls-12,.cls-13,.cls-2,.cls-3,.cls-7,.cls-8,.cls-9{stroke:#170d05;stroke-miterlimit:10;}.cls-2{fill:#fff;}.cls-5,.cls-9{fill:#fcecc6;}.cls-6{fill:#ffd4d5;}.cls-7{fill:#b87337;}.cls-8,.cls-9{stroke-linecap:round;}.cls-10{font-size:65px;font-family:MyriadPro-Semibold, Myriad Pro;font-weight:600;}.cls-11{letter-spacing:0.00799em;}.cls-12{fill:#c9f0ff;}.cls-13{fill:#ffce7f;}</style></defs><title>kermesse</title><g id="Content"><g id="Flag"><path id="flag_support" class="cls-1" d="M769.87339,335.6045V645.87788H779.9741V456.5854a2.20223,2.20223,0,0,1,3.04994-2.03235,104.31505,104.31505,0,0,0,38.84215,7.52627c30.02158,0,56.35252-18.99281,83.78418-18.99281,15.96021,0,27.70636,3.54073,34.63373,6.4295a5.23416,5.23416,0,0,0,7.25836-4.82818V338.89742a2.48932,2.48932,0,0,0-1.66854-2.3561c-4.80732-1.67874-19.6662-6.203-40.1804-6.203-26.8705,0-59.18279,17.9314-83.69781,16.83453-28.94247-1.295-41.84894-8.80575-41.84894-8.80575v-3.84175a5.13669,5.13669,0,1,0-10.27338,0v1.07916Z" transform="translate(-246.43957 -126.56891)"/><path id="back_flag" class="cls-2" d="M821.866,452.06493c-13.16082,0-34.64508-7.62454-40.59-9.04317a2.034,2.034,0,0,1-1.56087-1.98447V348.68363c8.28516,2.45508,28.44875,6.767,42.28078,6.767,14.69531,0,30.24707-4.5166,45.28711-8.88476,13.459-3.90869,27.37438-7.86112,38.41015-7.94971,24.30253-.19509,27.62441,2.5002,33.432,3.65743v93c0,1.2436-.2797,1.85939-1.51079,1.68345-8.321-1.18916-9.07163-3.88476-31.96421-3.88476-16.59277,0-31.63769,5.19239-46.1875,10.21436C846.38163,447.80126,834.02909,452.06493,821.866,452.06493Z" transform="translate(-246.43957 -126.56891)"/><path id="wave_4" class="cls-3" d="M906.98814,412.429c-12.459,0-27.06934,4.24317-41.19922,8.34668-14.36817,4.17285-29.22656,8.48779-42.498,8.48779-15.31726,0-35.81825-5.74188-43.57576-8.52453v9.41162c7.75751,3.04041,28.2585,9.18054,43.57576,9.18054,13.27149,0,28.12988-6.44586,42.498-10.61871,14.12988-4.10352,28.74023-7.705,41.19922-7.705,8.29748,0,26.18874,2.37119,32.137,3.56114v-8.94379C933.17688,414.6057,915.28562,412.429,906.98814,412.429Z" transform="translate(-246.43957 -126.56891)"/><path id="wave_3" class="cls-3" d="M906.98814,391.41733c-12.459,0-27.06934,4.24317-41.19922,8.34668-14.36817,4.17286-29.22656,8.4878-42.498,8.4878-15.31726,0-35.81825-5.74189-43.57576-8.52454v9.197c7.75751,2.78266,28.2585,8.52454,43.57576,8.52454,13.27149,0,28.12988-4.31494,42.498-8.48779,14.12988-4.10352,28.74023-8.34668,41.19922-8.34668,8.29748,0,26.18874,2.12044,32.137,3.13948v-9.197C933.17688,393.53777,915.28562,391.41733,906.98814,391.41733Z" transform="translate(-246.43957 -126.56891)"/><path id="wave_2" class="cls-3" d="M906.98814,370.40565c-12.459,0-27.06934,4.24316-41.19922,8.34668-14.36817,4.17285-29.22656,8.48779-42.498,8.48779-15.31726,0-35.81825-5.74188-43.57576-8.52454v9.197c7.75751,2.78266,28.2585,8.52454,43.57576,8.52454,13.27149,0,28.12988-4.31494,42.498-8.48779,14.12988-4.10352,28.74023-8.34668,41.19922-8.34668,8.29748,0,26.18874,1.90957,32.137,2.92862v-9.197C933.17688,372.31522,915.28562,370.40565,906.98814,370.40565Z" transform="translate(-246.43957 -126.56891)"/><path id="wave_1" class="cls-3" d="M906.98814,350.40024c-12.459,0-27.06934,4.24317-41.19922,8.34668-10.15943,2.95051-20.5614,5.96448-30.47669,7.48145v9.19708c9.91529-1.517,20.31726-4.53094,30.47669-7.48144,14.12988-4.10352,28.74023-8.34668,41.19922-8.34668a285.31885,285.31885,0,0,1,32.137,2.70948v-9.19708A285.3187,285.3187,0,0,0,906.98814,350.40024Z" transform="translate(-246.43957 -126.56891)"/><g id="Ermines"><g id="Ermine_5" data-name="Ermine 5"><path id="s" d="M816.17345,372.71716l-1.27088.84725-2.11813-.84725,2.11813-.84725Z" transform="translate(-246.43957 -126.56891)"/><path id="s-2" data-name="s" d="M816.17345,372.71716l-.84725-1.27088.84725-2.11812.84725,2.11812Z" transform="translate(-246.43957 -126.56891)"/><path id="s-3" data-name="s" d="M816.17345,372.71716l1.27087-.84725,2.11813.84725-2.11813.84725Z" transform="translate(-246.43957 -126.56891)"/><path d="M816.17345,372.71716l3.81262,9.31975L817.0207,380.766l-.84725,1.6945-.84725-1.6945-2.96538,1.27087Z" transform="translate(-246.43957 -126.56891)"/></g><g id="Ermine_4" data-name="Ermine 4"><path id="s-4" data-name="s" d="M797.92585,371.3188l-1.27088.84725-2.11813-.84725,2.11813-.84725Z" transform="translate(-246.43957 -126.56891)"/><path id="s-5" data-name="s" d="M797.92585,371.3188l-.84726-1.27088.84726-2.11812.84725,2.11812Z" transform="translate(-246.43957 -126.56891)"/><path id="s-6" data-name="s" d="M797.92585,371.3188l1.27087-.84725,2.11813.84725-2.11813.84725Z" transform="translate(-246.43957 -126.56891)"/><path d="M797.92585,371.3188l3.81262,9.31975-2.96537-1.27087-.84725,1.6945-.84726-1.6945-2.96537,1.27087Z" transform="translate(-246.43957 -126.56891)"/></g><g id="Ermine_3" data-name="Ermine 3"><path id="s-7" data-name="s" d="M825.4996,360.52241l-1.27087.84725-2.11813-.84725,2.11813-.84725Z" transform="translate(-246.43957 -126.56891)"/><path id="s-8" data-name="s" d="M825.4996,360.52241l-.84725-1.27088.84725-2.11812.84725,2.11812Z" transform="translate(-246.43957 -126.56891)"/><path id="s-9" data-name="s" d="M825.4996,360.52241l1.27088-.84725,2.11813.84725-2.11813.84725Z" transform="translate(-246.43957 -126.56891)"/><path d="M825.4996,360.52241l3.81263,9.31975-2.96538-1.27087-.84725,1.6945-.84725-1.6945-2.96537,1.27087Z" transform="translate(-246.43957 -126.56891)"/></g><g id="Ermine_2" data-name="Ermine 2"><path id="s-10" data-name="s" d="M807.79122,360.30394l-1.27088.84725-2.11812-.84725,2.11812-.84725Z" transform="translate(-246.43957 -126.56891)"/><path id="s-11" data-name="s" d="M807.79122,360.30394l-.84725-1.27088.84725-2.11813.84725,2.11813Z" transform="translate(-246.43957 -126.56891)"/><path id="s-12" data-name="s" d="M807.79122,360.30394l1.27087-.84725,2.11813.84725-2.11813.84725Z" transform="translate(-246.43957 -126.56891)"/><path d="M807.79122,360.30394l3.81263,9.31975-2.96538-1.27088-.84725,1.6945-.84725-1.6945-2.96538,1.27088Z" transform="translate(-246.43957 -126.56891)"/></g><g id="Ermine_1" data-name="Ermine 1"><path id="s-13" data-name="s" d="M789.43413,358.82791l-1.27088.84725-2.11812-.84725,2.11812-.84725Z" transform="translate(-246.43957 -126.56891)"/><path id="s-14" data-name="s" d="M789.43413,358.82791l-.84725-1.27088.84725-2.11812.84725,2.11812Z" transform="translate(-246.43957 -126.56891)"/><path id="s-15" data-name="s" d="M789.43413,358.82791l1.27087-.84725,2.11813.84725-2.11813.84725Z" transform="translate(-246.43957 -126.56891)"/><path d="M789.43413,358.82791l3.81262,9.31975-2.96537-1.27088-.84725,1.69451-.84725-1.69451-2.96538,1.27088Z" transform="translate(-246.43957 -126.56891)"/></g></g></g><g id="Pig_and_Baby" data-name="Pig and Baby"><path id="baby_pig_outline" class="cls-4" d="M840.04868,491.34428c-3.87829-9.87189-10.89367-13.13739-21.551-11.886-12.10523,1.42139-22.96857.40387-32.04871-7.42938-5.45923-4.70953-15.06445-15.5614-19.51892-21.23077-12.35779-15.72815-25.72571-29.71-44.843-36.84607-3.871-1.445-5.03094-3.90546-5.77807-7.6095-4.2569-21.10254-14.63782-38.36712-32.58875-50.71777-8.19909-5.64124-14.42425-4.93451-20.0636,3.20721-4.38232,6.32691-7.86865,13.27454-11.90838,20.21283-3.15613-2.10376-6.49146-4.49933-9.99548-6.61535a123.5404,123.5404,0,0,0-11.05506-6.09735A17.993,17.993,0,0,0,605.36625,377.355a99.21123,99.21123,0,0,0-4.09888,40.9c.19617,1.86358.051,4.8576-1.05011,5.54583a6.54724,6.54724,0,0,1-8.57391-.82605,19.7114,19.7114,0,0,0-17.01013-5.28735c-15.1391,2.28815-28.86414-1.05353-41.89728-7.9458-2.94434-1.55707-5.85339-3.29529-8.73541-5.1908,4.52844-2.72876,8.78778-5.19555,12.94842-7.81872,26.45215-16.67731,42.02686-49.73261,26.36359-83.78162a85.87346,85.87346,0,0,1-6.06354-19.91266c-4.28906-22.83325-14.94525-41.98669-32.94128-56.53668-29.70862-24.01959-62.98328-30.80859-99.65839-18.86908-1.94922.63452-3.95782,1.08673-5.98041,1.63513-1.84961-10.843-7.452-17.20349-16.011-18.64929-8.54688-1.44366-17.40381,2.71082-21.17737,9.93366-5.024,9.61615-3.01624,18.06134,7.067,28.77075-1.44012,1.70837-2.91357,3.46228-4.39331,5.21094-22.4339,26.51074-27.48071,56.4187-17.59039,89.33123a7.78048,7.78048,0,0,1-.58545,5.26606c-6.13831,11.0108-5.40137,21.82885.91937,32.28881,5.98413,9.90314,15.23053,13.87378,26.62427,13.35932,1.58533-.0716,3.6648-.19709,4.714.671,6.08508,5.03473,11.93012,10.35962,18.06751,15.77258a129.67334,129.67334,0,0,0-27.53437,43.68341c-1.71167,4.52515-3.60022,8.647-7.73864,11.75055-2.5304,1.89765-4.36084,5.014-5.89594,7.9065-8.74988,16.48706-8.63141,33.48522-2.31323,50.67608.79779,2.17053,1.42651,3.74793-.631,5.66254-12.0069,11.17279-19.35413,25.181-24.41578,40.5722-1.84863,5.62122-8.03235,6.61389-12.446,2.13336,11.20557-9.75457,13.74768-18.16351,8.29907-27.452-3.62982-6.18787-12.80774-9.01587-20.35126-6.27081-10.17315,3.702-12.81372,11.09961-10.14032,28.4082-5.95062,1.3114-8.76049.65851-12.476-3.6051a59.53237,59.53237,0,0,1-5.36181-7.77845c-2.00068-3.21289-4.52454-5.0039-8.29346-3.20532-3.87439,1.84888-3.09967,5.04779-1.90589,8.14411,5.35779,13.89581,18.43519,20.9544,32.87812,17.86053,1.183-.25342,2.92083-.62695,3.61444-.03033,6.19787,5.33068,13.30969,7.91259,20.66333,7.28186,0,4.12072-6.81769,115.26056-7.20551,126.73822.37232,25.0722,28.5271,26.29181,37.81134,17.51074.97028-1.58582,21.70338-30.9059,32.16645-48.29439,6.80853-13.85687,8.38239-10.7207,47.4389-3.1795,46.08936,8.67517,74.7027,12.0512,94.88977,12.94042,14.94336.62842,24.39448-.267,31.60273-1.64288,8.34607-1.61175,13.34283-3.8883,19.69647-5.24237,41.57977-18.0899,63.95056,100.23969,113.72,65.32221,13.14032-16.52857,29.97491-116.67656,49.21069-137.45,27.39471-29.53174,30.83472-29.98413,34.58911-36.25738a32.90538,32.90538,0,0,1,3.92938-5.46265c4.13983-4.39929,8.5008-6.47229,14.74146-6.4339,11.28094.06934,19.7727-5.49854,24.6593-15.7182C847.15092,523.79905,846.37119,507.43779,840.04868,491.34428ZM397.314,227.14384c-3.41113.02191-6.996-4.52624-7.08416-8.98773-.07257-3.67468,4.19421-7.715,8.30462-7.86377,3.89087-.14087,7.18988,3.7594,7.16114,8.46619C405.67222,222.5905,401.14549,227.11924,397.314,227.14384ZM328.69053,555.59971c-3.69952.03437-6.49347-3.43176-6.44727-7.99847.04322-4.27582,3.37824-7.9,7.26026-7.88965,3.99365.01056,6.57733,2.84009,6.50885,7.12817C335.942,551.24577,332.33109,555.5659,328.69053,555.59971Z" transform="translate(-246.43957 -126.56891)"/><path id="hat" class="cls-5" d="M522.61919,248.994c-9.03079-10.75209-31.73542-23.22342-51.17546-25.454-35.89142-4.11816-64.93209,7.62809-85.41928,37.49828-12.87946,18.77816-15.31119,39.91726-8.81686,61.87188.38015,1.28511,1.493,2.35349,2.26479,3.52274,1.07878-1.09212,2.48188-2.00787,3.18653-3.30348a119.28149,119.28149,0,0,1,30.02325-36.18973C444.72943,260.9784,480.73112,246.96559,522.61919,248.994Z" transform="translate(-246.43957 -126.56891)"/><path id="baby_body" class="cls-6" d="M456.535,478.70047c-5.88635-5.837-11.725-10.85477-16.57517-16.69357-3.53558-4.25623-6.15335-9.42292-8.43036-14.51877-1.27765-2.85929-.94788-6.61722,2.76688-8.07694,3.63968-1.43027,5.22668,1.4613,6.95053,4.06613,3.74478,5.65851,6.98044,11.90125,11.70932,16.61625,16.11033,16.063,36.4271,23.9155,58.37413,28.2739,10.33536,2.05252,21.30036,1.26861,30.87171,7.045,1.59833.96457,8.06681,1.02684,8.806-1.02451,1.01494-2.81673-6.609-2.79174-6.82014-8.15827-.26321-6.69018,16.10072.04316,17.35252-5.91367.98408-4.68286-22.14389-6-2.16634-10.237.6587-.1397.74658-1.36393.45117-1.969-.9233-1.89116-3.73028-2.10825-5.73392-2.61713-9.1676-2.32837-18.38507-4.46036-27.58563-6.65869-5.806-1.38724-8.90473-4.656-9.65177-10.97742-1.5517-13.13025-3.82074-26.17571-5.75641-39.00091-7.50943,1.44013-14.30121,3.054-21.18683,3.93138-3.425.43641-7.47135-.1907-7.927-4.86508-.44473-4.56265,3.03171-5.11,6.58381-5.61629a102.71626,102.71626,0,0,0,34.951-11.204c25.81486-14.04735,43.38179-44.62787,27.255-75.90634-2.45944-4.77022-3.706-10.30923-4.73816-15.64272-2.32394-12.00826-5.35577-23.71281-12.4657-33.87612-1.28287-1.83382-3.75678-3.97693-5.71454-4.01049-12.599-.21595-25.44639-1.39351-37.76658.558-33.157,5.252-60.7306,21.73423-83.8943,45.7414-6.55109,6.78966-12.35221,14.202-16.105,22.82668,2.34229,1.551,4.68787,2.47209,6.0239,4.18205,1.13736,1.45566,2.09732,4.43433,1.35318,5.62694-.94077,1.50773-3.66122,2.50242-5.66348,2.59021-2.211.09692-4.4495-1.22769-6.72672-1.67536-3.93485-.77353-7.54016-.52517-10.284,3.14484-4.5318,6.06157-3.43607,16.62331,2.58655,22.94379,6.46362,6.7833,12.72943,7.336,20.36747,1.77712,1.2102-.88082,2.24707-2.182,3.58777-2.65543,1.681-.59358,4.22451-1.35,5.25079-.556a7.40869,7.40869,0,0,1,2.30316,5.43181c-.059,2.15308-1.415,4.27062-2.52057,7.244,4.33057,3.29332,8.51468,7.68661,13.63273,10.09626,8.64276,4.06914,17.82245,7.04182,26.89267,10.1346,3.06787,1.04611,5.42343,2.49875,5.07044,5.73517-.382,3.50172-3.09095,5.03471-6.54963,4.52231-2.94244-.43593-6.18579-.60814-8.67267-2.006-6.33535-3.561-10.765-.794-14.95883,3.54163a106.04531,106.04531,0,0,0-24.45914,41.27937,7.3751,7.3751,0,0,0,1.78149,6.37195C415.54438,472.8317,435.33888,477.6398,456.535,478.70047Z" transform="translate(-246.43957 -126.56891)"/><path id="diaper" class="cls-5" d="M425.182,537.8229c-5.91419-9.60218-7.26441-19.05866-2.99707-28.72822,4.18179-9.47574,11.55737-15.924,21.72321-20.08569-20.92063-3.35206-39.68171-9.60816-54.90675-24.63682-10.23264,15.17054-11.44459,30.85465-4.6005,47.08644C391.80571,529.02022,407.27184,534.595,425.182,537.8229Z" transform="translate(-246.43957 -126.56891)"/><path id="baby_leg" class="cls-6" d="M471.30058,491.651c-14.85117.06553-27.05374,6.12482-36.512,17.34287a20.505,20.505,0,0,0-4.38193,10.81571c-.9595,11.00742,7.279,20.47327,18.28635,20.03943,16.71742-.65884,29.05479,6.5556,39.35689,18.76,4.721,5.59275,9.6029,11.04984,14.42343,16.55829,2.5849,2.95374,5.43552,5.92557,9.762,4.47486a74.21546,74.21546,0,0,0,37.1225-27.25385c2.83289-3.89054,1.04733-6.79022-3.86917-7.62577-6.02249-1.02349-11.73206-.79907-17.37293,2.3057-6.07877,3.34579-10.51642.00784-10.20715-6.88654a14.04069,14.04069,0,0,0-1.21406-6.77405c-4.37158-8.523-8.64972-17.14371-13.75171-25.2305C495.73311,496.74948,484.95262,491.30563,471.30058,491.651Z" transform="translate(-246.43957 -126.56891)"/><path id="baby_arm" class="cls-6" d="M524.46868,415.97655c1.43261,8.45331,2.73477,15.291,3.72461,22.17354,1.54193,10.72159,1.46969,10.65216,12.06924,12.91809,3.9029.83435,7.51981,2.16492,11.41752-.48788,9.86325-6.713,19.9195-13.14246,29.87979-19.71369.13038-.086.01627-.54256.01627-2.07723C561.44818,431.37824,542.0252,429.63384,524.46868,415.97655Z" transform="translate(-246.43957 -126.56891)"/><path id="pig_body" class="cls-6" d="M778.71513,569.21973c6.09323-3.62972,11.51261-10.88612,11.92575-11.83269a88.24875,88.24875,0,0,1-32.04547-7.72653,37.94863,37.94863,0,0,1-11.00624-7.34058c-1.23273-1.195-1.20355-5.50637-.0072-6.86419,1.11749-1.26843,5.22357-1.54,6.84613-.47333,15.7101,10.32755,32.92122,12.67114,51.12269,10.50122.78138-.09311,1.55927-.21487,2.73688-.37869-8.57751-18.2551-6.6665-36.54242-.60669-54.92046-19.14361-1.63781-33.23687-11.5664-44.20135-26.27432-9.92781-13.31729-20.58345-25.74976-35.06343-34.35068-10.68726-6.34817-22.39142-9.08777-34.68172-9.77655-3.6142-.20257-7.22052-.54608-10.40765-.79233,0,5.34369.06421,10.4376-.04053,15.528-.03,1.45856-.06915,3.40286-.94751,4.25235-1.60632,1.55359-4.00147,3.567-5.76807,3.31222-1.68805-.2435-4.24774-3.10446-4.28332-4.85836-.65705-32.37479-23.23163-47.29734-47.84071-60.65168-4.22577-2.29312-7.04-.75338-8.39221,3.61493-5.949,19.21948-6.52582,38.30335,2.39062,56.82917,4.30182,8.9378,11.90114,14.58987,20.8531,18.50247,1.2179.53235,3.02911.65439,3.5824,1.5643,1.17041,1.92456,2.61261,4.45443,2.18384,6.33478-.33735,1.47943-3.45575,3.48065-5.08521,3.27175a31.40582,31.40582,0,0,1-10.28375-3.44839,52.25434,52.25434,0,0,1-22.19039-21.65085c-1.02142-1.87521-2.0578-3.74231-3.168-5.75983-16.34751,1.93015-28.46293,11.50171-41.1294,21.06733,11.28769,10.07975,3.35847,11.73243,4.84524,16.42507.73731,2.32715.943,2.88455,1.554,3.69065,8.277,10.92086-11.77339,9.26978-8.41727,16.80216,1.70276,3.82162-8.62592,13.523-18.48409,12.35056a47.76056,47.76056,0,0,1-5.34006-.95915c-8.23972-1.94806-16.46314-4.00784-24.99779-6.09854,5.95657,12.06941,11.51853,23.33925,17.16129,34.77287,6.118,0,13.35425-1.06778,20.13217.2399,11.34214,2.18823,15.564,12.49164,9.91916,22.62216-7.05578,12.66268-18.27374,21.00707-30.70566,27.74035-4.93228,2.67138-10.40265,4.35141-15.63431,6.46722-5.0932,2.05978-9.54773.7764-13.2323-2.98428-4.65577-4.75187-9.04514-9.76346-13.63273-14.58371-4.69729-4.93555-9.48947-9.7809-14.25067-14.65541-5.57-5.70264-12.49186-7.8396-20.30686-8.03888-9.81262-.25019-19.71344-.08249-29.40369-1.38181-14.77271-1.98074-28.15333-7.7464-39.3109-18.00479-.40083-.36854-15.32083,14.65519-22.43874,46.45955-9.98133,44.59874-13.00332,112.01747-12.70159,126.94283.07771,3.844,8.34877,4.46645,12.70159,4.496,3.25944.02214,7.30562-4.76673,9.06475-7.51079L401.89229,652.316a9.48093,9.48093,0,0,1,10.13937-4.10715c278.81176,65.2419,158.54663-62.38478,263.46289,73.69311,10.26467,13.84606,30.43744,6.12281,32.95505-5.22163C728.52154,603.37093,763.62536,578.20866,778.71513,569.21973Z" transform="translate(-246.43957 -126.56891)"/><path id="pig_ear" class="cls-6" d="M705.55062,409.05449c-3.53314-18.09664-12.798-32.33593-27.30134-43.34649-2.61456-1.98489-4.81933-1.5872-6.26275.98757-3.07074,5.47758-5.78791,11.15266-8.68433,16.72891-1.788,3.44228-.957,6.16561,1.62134,8.99126,3.91516,4.29068,7.3501,9.01671,11.19128,13.37978a6.481,6.481,0,0,0,4.01477,2.01582C688.38362,408.35709,696.65456,408.64864,705.55062,409.05449Z" transform="translate(-246.43957 -126.56891)"/><path id="pig_nose" class="cls-6" d="M834.28162,520.32439a25.66625,25.66625,0,0,0-.08659-11.37557,87.25211,87.25211,0,0,0-3.71476-12.76126c-.90808-2.24692-4.66077-4.39755-7.24542-4.56082-1.87158-.11822-4.82575,2.72708-5.79023,4.9151-3.83117,8.69107-4.49585,18.04355-3.50671,27.35953a51.41926,51.41926,0,0,0,3.78442,14.81025c1.99647,4.61343,5.43714,4.897,8.982,1.25812a18.30708,18.30708,0,0,0,4.46613-7.04154C832.40761,528.85479,833.32536,524.68435,834.28162,520.32439Z" transform="translate(-246.43957 -126.56891)"/><path id="right_eye" class="cls-4" d="M523.723,303.11753c6.06821.22454,11.37925,1.36638,13.43732,7.2581a6.30959,6.30959,0,0,1,.04092,3.2056,4.26057,4.26057,0,0,1-5.38084,3.31314,5.47133,5.47133,0,0,1-1.24916-.5319c-5.12811-3.05667-6.98685-2.76259-10.45029,2.38821-1.69586,2.52207-3.41715,5.32613-7.11524,3.49414-3.45691-1.71254-3.56573-4.86342-2.83062-8.14558A13.83988,13.83988,0,0,1,523.723,303.11753Z" transform="translate(-246.43957 -126.56891)"/><path id="nostril" class="cls-4" d="M830.20836,515.22244c-.34028,5.43558-3.39887,9.87763-6.67841,9.69931-3.15064-.17129-5.569-4.5593-5.21808-9.46774.38489-5.383,3.0567-8.92637,6.46063-8.56806C828.07359,507.23339,830.4777,510.92038,830.20836,515.22244Z" transform="translate(-246.43957 -126.56891)"/><path id="left_eye" class="cls-4" d="M447.28815,334.46132a3.52473,3.52473,0,0,1-.34873-1.63589c.30446-7.59683,4.56226-13.02909,10.57968-14.89909,5.74286-1.78468,13.39685.31921,16.37122,5.33191,1.16272,1.95953,1.40265,5.75462.24075,7.50238-1.72436,2.59387-4.56106,1.96654-7.15057-.47322-2.98853-2.81564-6.35822-2.41075-9.00522.988-.91425,1.17386-1.45764,2.776-2.5922,3.606-1.70169,1.245-4.02151,3.016-5.61975,2.63562C448.60115,337.24049,447.78373,335.515,447.28815,334.46132Z" transform="translate(-246.43957 -126.56891)"/><path id="mouth" class="cls-4" d="M497.53724,375.86879c-9.00654-.3959-16.92451-3.07293-22.65839-10.563-3.00336-3.9232-3.24991-8.3379-2.305-12.827.81232-3.8588,3.00788-5.61788,7.31513-4.00067a51.51765,51.51765,0,0,0,10.61438,2.62593c8.72879,1.2742,15.983-1.36255,21.65345-8.41353,4.33664-5.39249,8.99676-4.3364,11.25522,2.26573,4.69418,13.72245-7.37729,30.03731-22.87757,30.90536C499.5384,375.91732,498.53644,375.86879,497.53724,375.86879Z" transform="translate(-246.43957 -126.56891)"/><path id="pig_eye" class="cls-4" d="M739.62563,485.25481c.03815,5.822-3.656,10.4802-8.3269,10.49994-4.76966.02015-8.617-4.4487-8.77564-10.19323-.16632-6.023,3.67261-10.804,8.61914-10.73426C735.81075,474.89309,739.58816,479.53618,739.62563,485.25481Z" transform="translate(-246.43957 -126.56891)"/></g><g id="Trail"><rect id="trail_lever" class="cls-7" x="717.19353" y="910.30234" width="135" height="16.57554" transform="translate(-380.33615 1576.71472) rotate(-90)"/><path id="trail_back" class="cls-7" d="M294.70161,819.00966,259.3311,651.24772a4.421,4.421,0,0,1,4.10113-5.47082H835.51144a4.35176,4.35176,0,0,1,4.20367,4.48606V818.02491a4.35176,4.35176,0,0,1-4.20367,4.48606H298.80274A4.27362,4.27362,0,0,1,294.70161,819.00966Z" transform="translate(-246.43957 -126.56891)"/><path id="trail_wood" class="cls-1" d="M844.54966,590.97142a4.83453,4.83453,0,0,0-4.83453,4.83453v39.97119H251.99223a5.25192,5.25192,0,0,0-4.92737,6.48041L285.59342,822.4246h-6.13727a4,4,0,0,0-4,4V851.921a4,4,0,0,0,4,4H767.406V986.09007h8.985V855.921h16.18738V986.09007h8.985V855.921h43.8208a4,4,0,0,0,4-4V826.4246a3.92792,3.92792,0,0,0-.04193-.416c.01154-.14673.04193-.28766.04193-.4375V595.806A4.83453,4.83453,0,0,0,844.54966,590.97142Zm-585.21857,60.2763a4.42105,4.42105,0,0,1,4.10114-5.47082h38.76886l6.645,33.07941H265.152Zm7.75031,36.75965h43.603l8.15088,40.57556h-43.199ZM277.56565,737.734H320.6735l8.63641,42.9928H286.63017Zm21.23712,84.777a4.27362,4.27362,0,0,1-4.10113-3.50134l-6.14209-29.13178h42.58868l6.55536,32.63312Zm540.91236-4.48609a4.3518,4.3518,0,0,1-4.20368,4.48609h-488.474L340.482,789.87785h499.2331Zm0-37.29809H338.64378l-8.63642-42.9928H839.71513Zm0-52.14386h-511.546l-8.15088-40.57556h519.6969Zm0-49.72662H318.18l-6.645-33.07941h523.9765a4.35179,4.35179,0,0,1,4.20368,4.48608v28.59333Z" transform="translate(-246.43957 -126.56891)"/><rect id="trail_base" class="cls-7" x="38.68561" y="704.31616" width="554.58993" height="16.57554" rx="3"/></g><g id="Wheel"><path id="wheel_outline" class="cls-1" d="M445.53886,739.64769A111.44241,111.44241,0,1,0,556.9813,851.09007,111.44242,111.44242,0,0,0,445.53886,739.64769ZM545.36808,845.9282H482.35026a36.98334,36.98334,0,0,0-7.55066-17.75561L519.32017,783.652A99.57007,99.57007,0,0,1,545.36808,845.9282Zm-32.42847-68.654-44.52356,44.52356a36.98279,36.98279,0,0,0-17.75128-7.52356V751.25908A99.57017,99.57017,0,0,1,512.93961,777.27415Zm-71.29644-26.06183v62.90552a36.98052,36.98052,0,0,0-18.29023,7.14093L378.7855,776.69133A99.55747,99.55747,0,0,1,441.64317,751.21232Zm-69.29248,31.80262,44.46881,44.46881a37.00849,37.00849,0,0,0-8.092,18.44445H345.70963A99.57779,99.57779,0,0,1,372.35069,783.01494Zm-26.691,71.93487H408.562a36.97986,36.97986,0,0,0,7.68451,19.01746l-44.52362,44.52362A99.57148,99.57148,0,0,1,345.65971,854.94981Zm32.4411,69.92157,44.52057-44.52057a36.98113,36.98113,0,0,0,19.02179,7.71155v62.90552A99.57126,99.57126,0,0,1,378.10081,924.87138Zm72.564,26.04974V887.90605a37.00863,37.00863,0,0,0,18.48041-8.09662L513.614,924.27824A99.57769,99.57769,0,0,1,450.66477,950.92112Zm69.27283-33.07769L475.37022,873.276a36.9793,36.9793,0,0,0,7.1455-18.32623H545.418A99.55755,99.55755,0,0,1,519.9376,917.84343Z" transform="translate(-246.43957 -126.56891)"/><path id="wheel_4" class="cls-7" d="M445.53886,718.68864A132.40146,132.40146,0,1,0,577.94029,851.09007,132.40143,132.40143,0,0,0,445.53886,718.68864Zm0,243.84387A111.44241,111.44241,0,1,1,556.9813,851.09007,111.44243,111.44243,0,0,1,445.53886,962.53251Z" transform="translate(-246.43957 -126.56891)"/><circle id="wheel_3" class="cls-7" cx="199.09928" cy="724.52119" r="29.75899"/><circle id="wheel_2" class="cls-1" cx="199.09928" cy="724.52119" r="15"/><circle id="wheel_1" class="cls-7" cx="199.09928" cy="724.52119" r="7.5"/><path id="wheel_and_floor" class="cls-8" d="M845.42887,983.49156H504.363a144.85254,144.85254,0,1,0-117.64819,0H309.84312a5.37977,5.37977,0,0,0-5.37982,5.37976v1.679a5.37977,5.37977,0,0,0,5.37982,5.37976H444.5499c.33014.00219.65833.01251.989.01251s.65881-.01032.98895-.01251H845.42887a5.37976,5.37976,0,0,0,5.37976-5.37976v-1.679A5.37976,5.37976,0,0,0,845.42887,983.49156ZM313.10362,851.09007a132.43524,132.43524,0,1,1,135.1062,132.40149H442.8679A132.43118,132.43118,0,0,1,313.10362,851.09007Z" transform="translate(-246.43957 -126.56891)"/></g><g id="Sign"><rect id="sign_back" class="cls-8" x="385.73597" y="483.1363" width="351.88489" height="256.38489" rx="8"/><rect id="sign_front" class="cls-9" x="395.75036" y="493.74603" width="331.85612" height="235.16543" rx="2"/><text id="sign_text" class="cls-10" transform="translate(437.26909 563.55044)">D<tspan class="cls-11" x="44.39453" y="0">E</tspan><tspan x="78.38867" y="0">VINEZ </tspan><tspan x="-3.76953" y="70">LE POIDS </tspan><tspan x="2.92578" y="140">DU BÉBÉ</tspan></text></g><g id="Guirlande"><path id="base_guirlande" class="cls-1" d="M963.88989,161.92072c-141.55246,55.57254-294.35165,38.96087-413.39556-33.96082a5.49524,5.49524,0,0,0-7.10715.90363,5.041,5.041,0,0,0,1.58109,7.44549q13.45085,8.23434,27.41911,15.52716a756.38232,756.38232,0,0,0,.59024,84.29279c.2159,3.61346,5.54583,5.86566,8.55256,3.60956a531.03537,531.03537,0,0,0,64.79691-57.0846q7.14546,2.28021,14.37076,4.3335a759.35434,759.35434,0,0,0,17.73356,82.45038c.946,3.49615,6.64784,4.63031,9.15065,1.81576a545.26577,545.26577,0,0,0,52.41748-68.9263q7.55149.801,15.147,1.36194a757.73327,757.73327,0,0,0,34.33865,77.20251c1.647,3.2342,7.54462,3.19635,9.46561-.0657a556.90218,556.90218,0,0,0,38.40634-78.15421q7.72206-.76024,15.44943-1.77331a750.19,750.19,0,0,0,49.86,68.54846c2.2962,2.82776,8.20135,1.56372,9.47937-2.03476a568.03937,568.03937,0,0,0,23.14492-84.76755q15.96374-5.02268,31.75946-11.20855c2.84858-1.11567,4.72046-3.94062,4.07276-6.4878C970.37851,162.02625,967.003,160.69653,963.88989,161.92072Z" transform="translate(-246.43957 -126.56891)"/><path id="guirlande_4" class="cls-12" d="M894.16516,193.63348q-15.17748,3.35056-30.40091,5.69977,19.23464,28.376,41.40174,55.35056a562.751,562.751,0,0,0,19.27474-68.76328Q909.35093,190.2855,894.16516,193.63348Z" transform="translate(-246.43957 -126.56891)"/><path id="guirlande_3" class="cls-13" d="M796.08075,204.94986q-15.12617.18214-30.1441-.58694,12.85564,31.672,28.81311,62.58358A551.84994,551.84994,0,0,0,826.41,203.62372Q811.21461,204.77023,796.08075,204.94986Z" transform="translate(-246.43957 -126.56891)"/><path id="guirlande_2" class="cls-12" d="M699.90916,196.334q-14.59037-2.82457-28.92886-6.55041,6.07093,33.57743,15.31174,67.03531A540.28179,540.28179,0,0,0,729.313,201.07141Q714.50685,199.161,699.90916,196.334Z" transform="translate(-246.43957 -126.56891)"/><path id="guirlande_1" class="cls-13" d="M608.66942,168.82922q-13.60378-5.66949-26.82223-12.19043-.89668,34.092,1.34325,68.70563a525.94584,525.94584,0,0,0,53.04516-46.03754Q622.27993,174.50138,608.66942,168.82922Z" transform="translate(-246.43957 -126.56891)"/></g></g></svg>