<svg xmlns="http://www.w3.org/2000/svg" viewBox="0 0 965 845"><defs><style>.cls-1{fill:#f9d2d4;}.cls-2{fill:#ef97a1;opacity:0.57;}.cls-3{fill:#f29d96;}.cls-4{fill:#324158;}</style></defs><title>PigFace</title><g id="Calque_2" data-name="Calque 2"><g id="Pig_breizh"><g id="PigFace"><path id="face" class="cls-1" d="M284.37658,63.50165C330.602,45.22187,487.20265-4.92122,690.93107,57.02825a18.02487,18.02487,0,0,0,20.74686-7.95612c43.2885-72.90507,116.38091-43.65648,129.56016-37.60734a17.90916,17.90916,0,0,1,3.6196,2.21224c11.54285,9.08729,83.32186,67.25582,103.4985,93.25563a10.03437,10.03437,0,0,0,2.49144,2.76293c19.8785,17.78827,14.17089,35.7989,7.7952,42.15956a19.44549,19.44549,0,0,0-3.74669,5.03407c-9.96188,19.95853-50.62555,90.71016-64.13511,114.14018a18.003,18.003,0,0,0-1.18549,15.5335c15.98575,41.0363,83.46068,232.16012,7.81653,359.2978-87.13911,143.09081-191.3054,200.127-424.678,199.12638S33.01215,737.91913,26.001,547.79846c-8.17782-153.595,33.72182-237.14907,49.37642-262.64414a18.03482,18.03482,0,0,0,.11475-18.719C57.70628,236.74159,6.76267,156.30187.27452,137.42725a5.08033,5.08033,0,0,1,1.43562-5.44366L3.30458,130.562c172.9053-193.9534,225.244-129.30594,258.9809-74.42774A18.10605,18.10605,0,0,0,284.37658,63.50165Z"/><path id="ear_right_shadow_outer" class="cls-2" d="M716.62137,108.01935s-14.07952-28.01778,8.04545-33.021,37.21018,30.019,37.21018,30.019l41.23291,94.0597s3.017,16.01016,17.09657,17.0108,32.18178,0,49.27835-11.007,70.39764-50.03175,82.46581-52.033c2.01136-1.00064,7.03977-3.00191,7.03977-3.00191L890.56227,272.52844a16.266,16.266,0,0,0-1.02058,13.67235l13.35917,37.95573s-71.63189,6.00381-112.8648-60.0381S716.62137,108.01935,716.62137,108.01935Z"/><path id="ear_right_shadow_inner" class="cls-3" d="M946.0946,131.034s21.31856-7.45571,18.67907,6.77882-10.79126,18.23706-10.79126,18.23706-45.98183,18.01143-73.04863,43.02731c-24.05939,19.01207-48.31052,19.13437-60.24433,19.07322s-21.95856-13.06941-15.94372-19.07322,24.269-2.51409,34.08413-7.00445C862.88924,181.06571,918.02532,133.03522,946.0946,131.034Z"/><path id="ear_left_shadow_outer" class="cls-2" d="M54.54653,330.16033s50.08-4.00254,66.10553-13.00825,50.07995-39.02477,83.13272-97.0616,49.07835-93.05907,52.08315-116.07367-2.0032-32.02032-9.01439-35.02223S230.828,64.992,217.80716,82.00284s-47.07515,104.066-47.07515,104.066l-16.37595,19.429s-9.9749,3.45781-27.34824-1.48146-61.01253-31.53224-74.7497-37.74814-19.678-15.14739-46.75556-17.68609c4.22125,6.778,53.87517,93.66714,68.22179,118.78508a15.92322,15.92322,0,0,1,.9003,13.95428Z"/><path id="ear_left_shadow_inner" class="cls-3" d="M5.18855,148.36858l1.90454,2.211a4.30017,4.30017,0,0,0,2.33052,1.39737c5.46071,1.21437,25.63141,5.91387,35.10693,11.07737,11.01759,6.00381,66.10553,35.02222,70.11193,37.02349s25.04,13.00826,43.06876,7.00445,17.02718-15.00953,16.02558-17.0108-1.0016-5.00317-16.02558-6.00381A266.33394,266.33394,0,0,1,81.5897,149.04539C48.53694,127.03141,1.51126,131.04815.24858,135.34814-.54141,138.0384,2.76231,145.552,5.18855,148.36858Z"/><ellipse id="eye_left" class="cls-4" cx="262.87912" cy="435.22702" rx="49.07835" ry="60.0381"/><ellipse id="eye_right" class="cls-4" cx="688.55868" cy="435.22702" rx="49.07835" ry="60.0381"/><g id="mouth"><path class="cls-4" d="M694.947,642.15039c-130.92309,98.30054-311.53882,98.301-442.4624,0-10.37207-7.77734-12.98584-20.98242-6.29492-28.62549q1.36451-1.59741,2.72851-3.19482c6.70044-7.66236,19.136-7.77075,28.17969-1.00318a327.76247,327.76247,0,0,0,393.23584,0c9.04272-6.76684,21.47876-6.6604,28.17969,1.00318q1.36413,1.59777,2.72851,3.19482C707.93384,621.165,705.31958,634.37256,694.947,642.15039Z"/></g></g></g></g></svg>