<svg xmlns="http://www.w3.org/2000/svg" viewBox="0 0 773 364"><defs><style>.cls-1{fill:#483026;}</style></defs><title>Beret</title><g id="Calque_2" data-name="Calque 2"><g id="Pig_beret"><path id="Beret" class="cls-1" d="M436.91411,17.25578S468.08547-7.1956,490.80441,2.11434s11.1402,28.36578,7.37934,31.88308-21.88836,1.66614-31.95964,12.26044l-10.029,9.37945s106.496,41.43578,255.65333,146.39851c0,0,97.2976,61.79131,46.43352,129.341s-172.59958,10.98427-203.75545.16254-182.96283-74.52194-342.39163-93.48475L57.55137,219.26152s-63.9461-9.53737-57.02794-68.8954S73.07982,51.95139,111.26527,35.04364s139.07886-58.3788,259.98378-12.78943c0,0,15.62024,4.196,44.35347,14.9329C415.60252,37.18711,426.92743,25.42038,436.91411,17.25578Z"/></g></g></svg>