<svg xmlns="http://www.w3.org/2000/svg" viewBox="0 0 1030 1372"><defs><style>.cls-1{fill:#f4f3f5;}</style></defs><title>Breizh</title><g id="Calque_2" data-name="Calque 2"><g id="Pig_breizh"><path id="Breizh" class="cls-1" d="M1017.9573,887.785S947.59817,739.55907,867.01983,693.07442c0,0,27.77568,69.46309,28.99648,124.9863s-1.36825,10.32724-7.47249,117.50006c-6.10448,107.17307-40.289,138.16283-63.48594,167.86124-23.19688,29.69865-95.02141,102.59617-253.94351,131.70651-174.03745,20.88418-356.49771-19.36873-440.7387-74.89194-84.24074-55.52321-114.76291-182.06476-103.775-259.53918S94.97031,665.69168,171.88577,590.79974c0,0,132.0074-98.69353,178.213-125.50065.995.27414,2.0083.54291,3.05944.80021,44.93351,10.99879,93.32314,2.99967,115.214,2.99967,21.89041,0,49.54183,3.99956,73.73689,2.99967s63.36755-2.99967,65.672-34.99616L582.434,33.14676a33.38906,33.38906,0,0,0-13.79618-21.45859C560.4184,5.929,552.47528,4.58934,542.1091,3.15A333.96329,333.96329,0,0,0,485.65429.15037c-20.79752.26365-48.11671,1.223-80.64987,3.99957-3.35457.06542-13.66655.54-23.00282,7.22088-5.9546,4.26077-11.389,11.02907-13.86575,21.77594,0,0-12.67351,26.997-42.6291,282.969l-10.0166,108.17808c-50.35839,29.82706-147.92246,93.7949-207.37813,172.79112C46.82064,678.52035-2.82641,788.97382.12514,919.04965c10.99866,313.96558,269.04227,333.67192,345.958,334.96328,147.982,1.99978,304.32363,28.38678,445.94583-92.9898,0,0,48.90055-43.39735,76.98064-96.33832l-19.534,263.413s-3.66264,41.31969,28.08033,36.15473L969.12193,1372s26.85953-2.58248,26.85953-30.98977S1054.58371,1187.35276,1017.9573,887.785Z"/></g></g></svg>