<svg xmlns="http://www.w3.org/2000/svg" viewBox="0 0 807 330"><defs><style>.cls-1{fill:#f2ac0f;}.cls-2{fill:#7f5a0e;}.cls-3{fill:#c68b14;}</style></defs><title>Hat</title><g id="Calque_2" data-name="Calque 2"><g id="Pig_hat"><g id="Hat"><path class="cls-1" d="M171.59624,201.15943s-87.192,9.21229-118.871,17.98177S.35976,240.81885.00978,254.2692s8.42914,31.55712,69.13846,44.71252S371.47108,340.691,642.8904,325.81479c118.62107-8.37438,163.58119-29.85548,164.10615-50.031s-59.06-40.99219-82.944-47.39738-89.26523-17.76234-89.26523-17.76234S649.35582,6.23312,426.57941.29381,207.14944,79.0474,171.59624,201.15943Z"/><path class="cls-2" d="M180.04146,170.64009s240.89483,32.10317,453.16313,4.72217c0,0,3.65651,26.66446,1.58276,35.26182,0,0-.23378.76154-1.76734,15.15926-.63139,5.92771-10.77682,6.18451-13.59775,6.54343-36.33974,4.6236-240.04826,38.38117-425.39139-4.61127l-11.942-3.2026c-9.18293-2.3316-13.83586-14.03845-11.00067-23.418C175.83263,185.39915,176.47082,183.16124,180.04146,170.64009Z"/><path class="cls-3" d="M393.50048,62.86467S409.34,58.47993,409.14,66.16585s-8.56944,9.38559-12.292,10.24775-17.73827,6.25693-48.24293,5.44366-43.246-8.8442-45.94419-11.80035-4.84663-9.26257-2.47317-11.6028a7.81857,7.81857,0,0,1,8.36944-1.69968c2.74816,1.03467,19.16207,10.12492,35.801,10.56852S393.50048,62.86467,393.50048,62.86467Z"/><path class="cls-3" d="M327.389,126.31333s16.00479-3.67564,15.48814,3.99476-8.948,8.99594-12.70243,9.6916-17.97888,5.46167-48.42017,3.29074-42.83913-10.76234-45.41278-13.8361-4.46-9.47043-1.99241-11.703a7.80569,7.80569,0,0,1,8.43133-1.32553c2.70281,1.15616,18.72592,10.96951,35.33027,12.15366S327.389,126.31333,327.389,126.31333Z"/><path class="cls-3" d="M537.851,96.42216s15.35584-5.96552,15.87654,1.70309-7.651,10.20657-11.27559,11.44106-17.07052,8.02063-47.51064,10.29691S451.0665,115.4366,448.104,112.7678s-5.69169-8.72709-3.54834-11.296a7.85828,7.85828,0,0,1,8.17167-2.538c2.83237.75165,20.02187,8.13722,36.62557,6.89561S537.851,96.42216,537.851,96.42216Z"/></g></g></g></svg>