<svg xmlns="http://www.w3.org/2000/svg" viewBox="0 0 1143 639"><defs><style>.cls-1{fill:#4a3f35;}.cls-2{fill:#2a2b28;}</style></defs><title>HeadsetFront</title><g id="Calque_2" data-name="Calque 2"><g id="Pig_headset"><g id="HeadsetFront"><path id="left_pad_outer" class="cls-1" d="M134.95417,34.24639a20.43729,20.43729,0,0,1-13.95048-8.3632c-.36267-.52667-.71483-1.073-1.04135-1.66372C93.543,27.70288,55.09916,43.6738,25.99859,101.21953c-48.989,96.875-22.50839,233.02371,27.8045,259.20617,50.31314,26.18245,80.268,26.0562,80.268,26.0562-5.17523-.65714-11.95058-5.40781-18.0387-22.12884-11.57473-31.79032-9.40778-126.57477-9.27419-131.98.00415-.16843.00024-.32411-.01051-.49187-2.95186-45.3581,19.72894-137.50265,30.40837-177.80574,1.22988-4.64127,2.303-8.60618,3.157-11.72146A6.51346,6.51346,0,0,0,134.95417,34.24639Z"/><path id="left_pad_inner" class="cls-2" d="M151.68924,12.90191,115.67289,0c.01172.398.03712.865.0718,1.37825.399,5.89541,2.217,18.66521,3.55631,21.53867q.83962,1.463,1.70269,2.96627a20.43779,20.43779,0,0,0,13.95073,8.36326,6.51351,6.51351,0,0,1,5.35864,8.10759c-.85428,3.11522-1.92689,7.08025-3.15677,11.72146-10.67967,40.303-33.36023,132.44765-30.40861,177.80568.01075.16776.01466.32344.01026.49193-.13334,5.40518-2.30054,100.18969,9.27444,131.98,6.08787,16.72091,12.86347,21.47164,18.03894,22.12878a11.424,11.424,0,0,0,8.44166-2.492s14.5642-9.16386,14.5642-45.81931-2.64781-86.402,10.59224-163.64017c.13041-.76189.26815-1.54406.40345-2.31963,6.00875-34.45011,16.62932-82.16818,33.07205-130.183.29013-.84761.57782-1.69521.87186-2.54307C189.38483,32.85892,166.20607,20.62831,151.68924,12.90191Z"/><path id="microphone" class="cls-2" d="M1020.24162,374.7094a27.583,27.583,0,0,1-8.00939,10.01709c-9.04536,42.303-40.65406,105.09158-70.3598,138.89371-33.10087,37.66509-113.86633,54.14351-113.86633,54.14351s-11.91639-30.60291-80.76594-29.42588c-68.84907,1.177-75.46934,30.60291-75.46934,44.72727s9.26809,47.08121,83.41376,45.90418c74.14519-1.177,74.14519-30.60278,74.14519-30.60278s68.84955,2.35406,139.02277-61.2057c65.89891-59.68764,81.35451-162.541,82.99322-174.85186A135.63632,135.63632,0,0,1,1020.24162,374.7094Z"/><path id="right_pad_outer" class="cls-1" d="M1111.70042,73.41909c-22.91257-32.56589-50.84236-45.975-71.67516-51.435-.49088-.12845-.98176-.25738-1.46434-.37728a112.96692,112.96692,0,0,0-17.17832-2.913,6.3465,6.3465,0,0,0,.26229,3.94427,163.42043,163.42043,0,0,1,5.86369,18.76948q.26155.99852.53093,2.04955c2.65954,10.39278,5.831,24.6876,9.51572,44.36232,13.24006,70.69262,7.94394,200.29562,5.29612,213.3869-2.4754,12.23733-13.04859,51.92205-20.90607,69.87958-.54851,1.25322-1.08433,2.40632-1.60256,3.43121-.0337.06618-.0674.12674-.1011.19231a135.63632,135.63632,0,0,0,31.10414-2.40046c.69993-.13785,1.392-.25836,2.09783-.41013,30.45257-6.54546,60.90513-35.34619,76.79349-77.23809S1154.06937,133.63884,1111.70042,73.41909Z"/><path id="right_pad_inner" class="cls-2" d="M1037.55523,87.8194c-3.68476-19.67472-6.85618-33.96954-9.51572-44.36232q-.26889-1.0509-.53093-2.04955a163.42043,163.42043,0,0,0-5.86369-18.76948,6.3465,6.3465,0,0,1-.26229-3.94427,28.85884,28.85884,0,0,1,1.57912-4.69054l-5.4026,2.06713-7.51411,2.87518c-11.75814,6.72983-24.15466,14.929-34.03036,24.0644A86.99113,86.99113,0,0,1,953.4308,56.01c.17486.52722.34434,1.06177.51823,1.59021a565.63845,565.63845,0,0,1,24.02473,106.14835c.14556,1.16189.28037,2.31206.41811,3.4654.12211,1.02026.23445,2.02916.35069,3.0427,13.14677,114.65422-10.36365,186.15831-13.63813,195.3875a6.35429,6.35429,0,0,1-.91044,1.69058c-1.92591,2.571-7.58543,11.86041,7.1595,16.34631a88.57866,88.57866,0,0,0,29.75215,3.97956,7.09011,7.09011,0,0,1,1.28947.04456,14.08388,14.08388,0,0,0,9.83712-2.97871,27.583,27.583,0,0,0,8.00939-10.01709c.0337-.06557.0674-.12613.1011-.19231.51823-1.02489,1.054-2.178,1.60256-3.43121,7.85748-17.95753,18.43067-57.64225,20.90607-69.87958C1045.49917,288.115,1050.79529,158.512,1037.55523,87.8194Z"/></g></g></g></svg>