<svg xmlns="http://www.w3.org/2000/svg" viewBox="0 0 915 300"><defs><style>.cls-1{fill:#2a2b28;}</style></defs><title>HeadsetBack</title><g id="Calque_2" data-name="Calque 2"><g id="Pig_headset"><path id="HeadsetBack" class="cls-1" d="M909.36776,282.386l1.72226-.37777a3.79762,3.79762,0,0,0,2.66175-2.11535c1.19831-2.63664,2.49671-8.46424-1.105-19.12791-7.41689-21.961-86.03861-207.71163-284.58983-242.98343C429.50618-17.49024,303.757,7.33064,248.16288,26.92605S101.23516,77.87419,32.40423,195.44686C7.4967,237.99216-.24931,263.9411.00608,279.73623c.00341.20987.019.40433.02514.61066l93.7475,5.42419c20.05914-51.44245,47.17552-100.50777,82.90587-130.82149C252.13378,90.93782,372.58822,70.036,485.10035,75.26149s207.81683,33.96542,254.14538,78.38172C768.21841,181.41983,802.36714,233.72034,827.77226,300L905.411,285.0231A6.50617,6.50617,0,0,1,909.36776,282.386Z"/></g></g></svg>