<svg xmlns="http://www.w3.org/2000/svg" viewBox="0 0 326.00006 352.99998"><defs><style>.cls-1{fill:#eb6532;}.cls-2{fill:#f7ad36;}</style></defs><title>Party_Hat</title><g id="Calque_2" data-name="Calque 2"><g id="Pig_party_hat"><g id="Party_Hat"><path class="cls-1" d="M310.75384,203.48242l-54.91461-46.60613q10.90644,9.25654,21.81341,18.51328a401.1773,401.1773,0,0,1-78.21837,95.01087,404.04286,404.04286,0,0,1-138.775,80.63124c86.99543-10.131,228.18113-79.816,254.17577-102.58353C342.14941,224.52469,310.75384,203.48242,310.75384,203.48242Z"/><path class="cls-1" d="M136.20227,220.27059a551.54118,551.54118,0,0,0,92.325-86.57381l-107.595-91.31569L89.91809,16.05928C86.63008,13.11846,81.61416,6.18366,68.732.93983c-6.52767-2.65719-13.9949.5759-17.82415,6.48309-4.3817,6.75984-4.713,10.53829-4.713,10.53829S40.93763,51.097,33.98072,95.403C23.80138,160.23309,9.98518,248.97018,3.67514,292.818v-.00013A552.97848,552.97848,0,0,0,136.20227,220.27059Z"/><path class="cls-2" d="M228.52726,133.69664v.00014l27.312,23.17951Q242.1831,145.28652,228.52726,133.69664Z"/><path class="cls-2" d="M199.43427,270.40044a401.1773,401.1773,0,0,0,78.21837-95.01087q-10.90643-9.25675-21.81341-18.51328l-27.312-23.17951a551.54118,551.54118,0,0,1-92.325,86.57381A552.97848,552.97848,0,0,1,3.67515,292.81788v.00013C2.25592,302.67918,1.2152,310.27874.68228,314.81543-3.839,353.311,14.3612,354.89993,47.84678,352.10421c4.1152-.19338,8.39572-.55823,12.81246-1.07253A404.04286,404.04286,0,0,0,199.43427,270.40044Z"/><path class="cls-2" d="M124.64844,45.53509l33.33587,28.29206a206.61948,206.61948,0,0,1-63.629,61.578,206.5495,206.5495,0,0,1-70.88061,27.2071q4.52113-28.94024,9.042-57.88034A127.42854,127.42854,0,0,0,78.899,89.44631,128.16726,128.16726,0,0,0,124.64844,45.53509Z"/></g></g></g></svg>