<svg xmlns="http://www.w3.org/2000/svg" viewBox="0 0 552 728"><defs><style>.cls-1{fill:#513225;}.cls-2{fill:#88a1e2;}.cls-3{fill:#e0d551;}.cls-4{fill:#e5806e;}.cls-5{fill:#8bc98b;}.cls-6{fill:#c979c7;}.cls-7{fill:#c16b3b;}.cls-8{fill:#874a32;}</style></defs><title>Pot</title><g id="Calque_2" data-name="Calque 2"><g id="Pig_pot"><g id="Pot"><path id="stem_flower_orange" class="cls-1" d="M136.71545,407.238S85.73273,220.08979,116.72223,139.02561h13.99525S141.71376,426.253,150.71071,407.238Z"/><path id="stem_flower_pink" class="cls-1" d="M158.32075,269.83933s62.43154,83.0946,31.55607,187.50753l20.78025,2.20019s5.69176-131.23232-36.90781-192.09966Z"/><path id="stem_flower_blue" class="cls-1" d="M428.65512,182.12327s-105.15641,92.01-79.51031,225.55285l-30.38945-.70025S334.31377,244.56152,406.8214,176.65Z"/><path id="stem_flower_green" class="cls-1" d="M258.67411,411.24114s-.99966-213.16878,13.99525-242.19176H285.665S262.67275,436.261,271.6697,414.24352Z"/><g id="flower_blue"><path class="cls-2" d="M539.55849,96.95787c13.94318-18.36679.174-28.90271-11.67289-29.9098,6.60674-10.76512.90358-25.73931-18.81994-22.88038,5.03173-17.89243-11.05909-27.547-24.78871-17.11154-.48108-12.73447-11.92863-24.1517-28.35136-7.87737-7.81128-22.02422-27.26106-15.39095-32.91028-1.768-7.25658-10.66257-27.5204-11.53935-30.76,7.45539-16.859-13.08471-35.1125,1.82041-30.70338,17.25467-13.72343-6.45611-27.43858,11.60527-19.56452,26.53721-17.67565-1.79672-28.87631,16.7174-15.32423,33.27825-17.92779,5.8678-16.75209,23.40525-.8156,31.99244-10.23689,4.48057-17.8882,26.83916,5.58842,34.8782-16.72069,19.85917,3.10884,32.78581,17.19658,30.47136-5.23552,10.83876,1.57241,25.92527,21.48165,20.58755-5.55044,25.59562,17.41732,26.35288,26.80521,16.002.97556,12.39033,15.77232,22.50484,31.00951,3.678,10.69737,17.51947,26.26491,12.26622,31.30027-3.71969,10.76012,10.42719,24.19182,3.57656,24.39457-10.07428,9.60964,6.23508,26.7064,4.02933,24.959-13.69773,20.35177,7.12991,26.762-6.87588,20.40635-24.47982,17.9-.41517,19.50178-19.445,8.93457-28.538,16.06562-3.69087,15.00207-22.33436,3.37238-29.36632C555.60455,123.23712,556.098,102.18849,539.55849,96.95787Z"/><path class="cls-3" d="M478.49715,122.02856c3.59826,24.88033-18.40022,49.39373-43.25243,52.99606s-43.14714-15.07051-46.7454-39.95085,10.60124-47.67736,35.45345-51.2797S474.89889,97.14822,478.49715,122.02856Z"/></g><g id="flower_orange"><path class="cls-4" d="M217.166,100.06045c15.57008-15.3321,4.084-27.08675-6.89164-29.64212C217.93174,61.219,214.61356,46.398,195.7253,46.398c7.14689-16.09877-6.63643-27.34236-20.93027-19.42074,1.27624-12.0102-7.91263-24.27586-25.52465-11.24359-4.33921-21.7205-23.48271-18.143-30.62964-6.13286-5.36015-10.988-24.24845-14.56549-29.86389,2.81089C74.73832-2.15377,55.59478,9.34528,57.63676,24.42191c-11.99662-7.92162-27.31138,7.155-21.95119,22.23157C19.34975,42.565,6.33214,58.40814,16.79727,75.78459-.81478,78.851-2.091,95.4608,11.69233,105.68224c-10.20989,2.8109-20.41978,22.74271.51049,33.47516-18.37779,16.35431-1.53148,31.1754,11.99662,30.91987-6.38118,9.4548-2.042,24.53139,17.35675,22.23157-8.67841,23.25375,12.76236,27.08679,22.97225,18.65413-.76575,11.75463,11.74137,23.25372,28.58762,7.666,7.65741,17.88749,22.97221,15.07659,29.86389.76661,8.67837,11.24355,22.20647,6.64393,24.24845-6.13284,8.16791,7.155,24.5037,7.41052,25.26944-9.45483,18.12252,9.45483,26.03518-2.8109,22.46172-20.18732,16.84628,2.04429,20.93024-15.58766,12.25183-25.55357,15.57005-1.27768,17.10153-18.90967,7.14692-27.08675C228.65212,126.89174,231.97034,107.21546,217.166,100.06045Z"/><path class="cls-3" d="M156.49021,115.27446c0,23.8267-23.95967,43.829-47.75944,43.829s-38.42714-20.00234-38.42714-43.829S86.71512,71.995,110.51489,71.995,156.49021,91.44776,156.49021,115.27446Z"/></g><g id="flower_green"><path class="cls-5" d="M342.28111,192.64022c14.66856-3.548,12.0332-14.59976,6.43562-20.01814,7.80277-2.72806,11.09622-12.69171-.09753-19.41023,9.94882-6.99848,5.7707-18.56446-5.51159-18.95417,5.01869-6.66364,3.9261-17.2011-11.13638-15.74235,5.13694-14.41566-7.47771-19.10483-15.97552-14.52941.723-8.41841-9.20114-17.25707-18.6958-8.95671-3.15044-13.62542-18.57642-13.62005-22.71689-3.95887-4.29822-8.96176-18.72481-5.47433-20.89879,5.3671-8.23011-8.23359-21.56738-3.4748-21.53223,10.54543-11.52569-4.44731-18.17674,4.94218-13.63585,15.90242-7.04825-1.96581-20.17262,6.21474-11.57761,20.02-16.69528,3.1551-11.97157,17.93072-3.86373,22.59121-7.13713,3.33342-9.91618,13.8117,2.39627,19.34884-13.3957,10.694-2.04959,20.592,6.99379,19.22618-4.62545,6.69377-1.29432,17.95723,14.22124,14.71169-1.81015,13.32439,8.26342,17.106,17.42617,11.07684,1.15279,9.75014,10.80232,11.83619,16.54686,4.99063,2.30128,7.14556,11.89167,13.1076,18.33089,3.38507,7.38447,12.04936,16.42679,7.59484,20.47584-3.974,9.25811,7.2037,17.93586-1.79287,16.32962-10.78585,9.68072,4.781,16.84581-5.12346,13.84841-13.51028C339.56585,212.62683,348.51532,202.14637,342.28111,192.64022Z"/><path class="cls-3" d="M300.92346,180.07424c-8.456,14.12041-29.75389,17.452-43.85834,8.98645s-15.67435-25.52243-7.21839-39.64284,25.08557-19.81116,39.19-11.34563S309.37942,165.95383,300.92346,180.07424Z"/></g><g id="flower_pink"><path class="cls-6" d="M222.96648,246.79085c6.661-10.93157-1.53754-15.96924-8.136-15.85423,3.03964-6.31851-.95586-14.26382-11.68513-11.56788,1.7671-10.16482-7.66354-14.58431-14.6549-8.04434-.9854-7.00442-7.95178-12.66026-16.10019-2.74363-5.558-11.71876-15.92281-6.95422-18.2722.88809-4.60956-5.47654-15.84832-4.81275-16.56356,5.85921-10.04869-6.27-19.2854,2.99426-15.97844,11.26692-7.94265-2.78749-14.495,7.96252-9.30317,15.76153-9.86162.00919-14.99993,10.86675-6.58076,19.24356-9.56765,4.25564-7.92723,13.8728,1.35787,17.71167-5.39932,3.054-8.36047,15.83329,5.05714,18.94234-8.11032,11.913,3.5697,17.92743,11.2178,15.8514-2.27831,6.28149,2.33356,14.22624,13.02528,10.151-1.61814,14.44772,11.10692,13.56477,15.70565,7.31742,1.239,6.78639,9.98109,11.53316,17.3306.27427,6.89705,9.06785,15.19615,5.28525,17.073-3.827,6.53083,5.1481,13.5603.60446,12.9007-6.9447,5.65862,2.89849,14.97438.712,13.00758-8.97745,11.64075,2.78407,14.38871-5.31273,9.88429-14.67318,9.86047-1.24325,9.66938-11.8418,3.32047-16.26414,8.66244-2.94811,7.02144-13.18236.20234-16.40643C233.31206,260.39264,232.39486,248.74214,222.96648,246.79085Z"/><path class="cls-3" d="M190.66686,264.09333c3.39313,13.5345-7.36839,28.3164-20.88759,31.71337s-24.67663-5.87736-28.06976-19.41186,3.159-26.92685,16.6782-30.32382S187.27374,250.55883,190.66686,264.09333Z"/></g><g id="Pot-2" data-name="Pot"><path class="cls-7" d="M428.37829,504.34415c25.02033-.31348,22.23075-18.04358,22.23075-18.04358l-8.99695-63.04992c-.99966-20.01585-28.99017-22.01743-28.99017-22.01743-10.99628-2.00159-74.97459-8.00634-74.97459-8.00634-124.95763-7.00555-220.9251,4.00317-245.91663,7.00554s-24.99153,18.01427-24.99153,18.01427L55.7429,483.29819c-3.99864,24.019,21.99255,22.01744,21.99255,22.01744.81124-.056,1.86167-.10947,3.11369-.161l.005.161H428.24528Z"/><path class="cls-7" d="M93.73,685.45826s.99966,24.019,36.98746,33.02615,199.93223,14.01109,237.91935,4.00317,40.9861-18.01427,46.98407-51.04042l9.334-142.11252H81.68723C83.34975,573.11833,87.23833,655.85083,93.73,685.45826Z"/><path class="cls-8" d="M80.85414,505.31563c.14387,4.65554.42,13.13882.83309,24.019H424.95489l3.29039-24.019Z"/></g></g></g></g></svg>