<svg xmlns="http://www.w3.org/2000/svg" viewBox="0 0 528 382"><defs><style>.cls-1{fill:#2c3132;}.cls-2{fill:#e9504a;}</style></defs><title>Tarboush</title><g id="Calque_2" data-name="Calque 2"><g id="Pig_tarboush"><g id="Tarboush"><path class="cls-1" d="M24.43336,304.17773,1.58247,361.2354s-5.71272,11.41153,4.57018,14.835,19.42326,6.84692,27.42107,5.70577,11.42544-9.12923,11.42544-25.10537,4.57018-61.62229,15.99563-95.85689,39.98906-131.23264,60.55486-157.47916,29.70616-53.63421,58.26977-62.76344,39.98906,1.14115,39.98906,1.14115l14.85308-7.98807s-5.71273-10.27038-20.5658-14.835-33.1338-4.56462-55.98469,12.55268-53.69959,57.05767-66.26758,84.44535S63.27988,179.792,56.42461,202.61508,33.57372,285.91928,24.43336,304.17773Z"/><path class="cls-2" d="M347.77347,320.15388s115.397-17.1173,148.53079-34.2346,35.41888-36.51691,28.56361-70.75151-42.27415-151.7734-52.55705-171.173S439.177,4.05439,387.76253.63093,281.50588,8.619,257.51245,13.18362,180.962,36.00669,161.53871,48.55937s-20.5658,18.25846-27.42107,70.75151c-4.57018,42.22268-9.14036,142.64418-6.85527,168.8907s6.85527,25.10538,27.42107,31.9523S283.791,333.84772,347.77347,320.15388Z"/></g></g></g></svg>